<svg xmlns="http://www.w3.org/2000/svg" viewBox="0 0 50 50" fill="currentcolor">
 <path d="M15.37,22.81a1.47,1.47,0,0,0-2.4.64l-2.19,7.16a1.47,1.47,0,0,0,.4,1.5l5.48,5.11a1.48,1.48,0,0,0,1,.39,1.73,1.73,0,0,0,.38,0,1.45,1.45,0,0,0,1-1l2.19-7.15a1.47,1.47,0,0,0-.4-1.5Zm1.57,10.67-3.09-2.89,1.24-4,3.09,2.88Z" />
 <path d="M9.4,20.41a1.47,1.47,0,0,0-2.83.76l.63,2.36a1.48,1.48,0,0,0,1.42,1.09A1.73,1.73,0,0,0,9,24.57a1.47,1.47,0,0,0,1-1.8Z" />
 <path d="M24.83,36.5a1.47,1.47,0,1,0-2.83.76l.63,2.36a1.47,1.47,0,0,0,1.42,1.08,1.28,1.28,0,0,0,.38-.05,1.46,1.46,0,0,0,1-1.79Z" />
 <path d="M46.83,4.51,30.56.15a4.27,4.27,0,0,0-5.23,3L24.7,5.52H16a4.27,4.27,0,0,0-4.27,4.27v2.42L3.26,14.48A4.39,4.39,0,0,0,.15,19.86l7.2,26.88A4.41,4.41,0,0,0,11.6,50a4.46,4.46,0,0,0,1.14-.15l16-4.3a4.36,4.36,0,0,0,2.67-2A4.47,4.47,0,0,0,32,42.14h.89a4.26,4.26,0,0,0,3.85-2.44l.66.18a4.31,4.31,0,0,0,1.12.15,4.3,4.3,0,0,0,4.12-3.17L49.85,9.74A4.27,4.27,0,0,0,46.83,4.51ZM28.9,42a1.42,1.42,0,0,1-.89.68L12,47a1.48,1.48,0,0,1-1.8-1L3,19.1A1.44,1.44,0,0,1,3.13,18,1.42,1.42,0,0,1,4,17.31l16-4.3a1.49,1.49,0,0,1,1.8,1l7.2,26.89A1.44,1.44,0,0,1,28.9,42Zm5.28-4.17a1.34,1.34,0,0,1-1.34,1.34H31.62L24.68,13.29a4.4,4.4,0,0,0-5.39-3.11l-4.64,1.24V9.79A1.34,1.34,0,0,1,16,8.45H32.84a1.34,1.34,0,0,1,1.34,1.34V37.87ZM47,9,39.76,36.1a1.37,1.37,0,0,1-.63.82,1.34,1.34,0,0,1-1,.13l-1-.27v-27a4.27,4.27,0,0,0-4.27-4.27H27.73l.43-1.59A1.33,1.33,0,0,1,29.8,3L46.07,7.34A1.33,1.33,0,0,1,47,9Z" />
</svg>