<svg xmlns="http://www.w3.org/2000/svg" viewBox="0 0 50 50" fill="currentcolor">
 <path d="M47.23,20.82a4.87,4.87,0,0,0-3.09-.65v-1a19.14,19.14,0,0,0-38.28,0v1a4.87,4.87,0,0,0-3.09.65C.93,22,0,24.35,0,27.93s.93,6,2.77,7.15a5,5,0,0,0,3.09.68v1.06a1.46,1.46,0,0,0,1.46,1.46h5.86a1.46,1.46,0,0,0,1.47-1.46V19.14a1.46,1.46,0,0,0-1.47-1.46H8.86a16.21,16.21,0,0,1,32.28,0H36.82a1.46,1.46,0,0,0-1.47,1.46V36.82a1.46,1.46,0,0,0,1.47,1.46h4.39v1.47a4.4,4.4,0,0,1-4.39,4.39H32.07a4.4,4.4,0,0,0-4.14-2.93H25A4.4,4.4,0,0,0,25,50h2.93a4.39,4.39,0,0,0,4.14-2.93h4.75a7.34,7.34,0,0,0,7.32-7.32v-4a5,5,0,0,0,3.09-.68C49.07,33.93,50,31.52,50,27.93S49.07,22,47.23,20.82Zm-41.37,12a2.19,2.19,0,0,1-1.53-.21c-.9-.57-1.4-2.23-1.4-4.67s.49-4.06,1.37-4.62a2.19,2.19,0,0,1,1.56-.18Zm5.86-12.2V35.35H8.79V20.61ZM27.93,47.07H25a1.47,1.47,0,0,1,0-2.93h2.93a1.47,1.47,0,0,1,0,2.93ZM41.21,35.35H38.28V20.61h2.93Zm4.47-2.76a2.21,2.21,0,0,1-1.54.22V23.13a2.19,2.19,0,0,1,1.56.18c.88.56,1.37,2.2,1.37,4.62S46.58,32,45.68,32.59Z" />
</svg>