<svg xmlns="http://www.w3.org/2000/svg" viewBox="0 0 50 50" fill="currentcolor">
 <path d="M30.86,18.38a1.46,1.46,0,0,0-1.47,1.46V30.16a1.47,1.47,0,0,0,2.93,0V19.84A1.46,1.46,0,0,0,30.86,18.38Z" />
 <path d="M22.07,18.38a4.4,4.4,0,0,0-4.39,4.39v7.39a1.47,1.47,0,0,0,2.93,0v-2.9h2.93v2.9a1.46,1.46,0,0,0,2.92,0V22.77A4.4,4.4,0,0,0,22.07,18.38Zm-1.46,5.95V22.77a1.47,1.47,0,0,1,2.93,0v1.56Z" />
 <path d="M48.54,23.54H38.18V19.63h5.47a1.47,1.47,0,1,0,0-2.93H38.18V13.5A1.46,1.46,0,0,0,36.72,12H33.89V5.86h5.17a4.4,4.4,0,1,0,0-2.93H32.43A1.47,1.47,0,0,0,31,4.39V12h-4.5V1.46a1.46,1.46,0,0,0-2.92,0V12H19V4.39a1.47,1.47,0,0,0-1.47-1.46H10.94a4.4,4.4,0,1,0,0,2.93h5.17V12H13.28a1.46,1.46,0,0,0-1.46,1.47v3.2H6.35a1.47,1.47,0,1,0,0,2.93h5.47v3.91H1.46a1.46,1.46,0,0,0,0,2.92H11.82v3.91H6.35a1.47,1.47,0,1,0,0,2.93h5.47v3.2A1.46,1.46,0,0,0,13.28,38h2.83v6.17H10.94a4.4,4.4,0,1,0,0,2.93h6.63A1.47,1.47,0,0,0,19,45.61V38h4.5V48.54a1.46,1.46,0,0,0,2.92,0V38H31v7.64a1.47,1.47,0,0,0,1.47,1.46h6.63a4.4,4.4,0,1,0,0-2.93H33.89V38h2.83a1.46,1.46,0,0,0,1.46-1.47V33.3h5.47a1.47,1.47,0,1,0,0-2.93H38.18V26.46H48.54a1.46,1.46,0,0,0,0-2.92ZM43.2,2.93a1.47,1.47,0,1,1-1.46,1.46A1.47,1.47,0,0,1,43.2,2.93ZM6.8,5.86A1.47,1.47,0,1,1,8.26,4.39,1.47,1.47,0,0,1,6.8,5.86Zm0,41.21a1.47,1.47,0,1,1,1.46-1.46A1.47,1.47,0,0,1,6.8,47.07Zm36.4-2.93a1.47,1.47,0,1,1-1.46,1.47A1.47,1.47,0,0,1,43.2,44.14Zm-8-9.1H14.75V15h20.5Z" />
</svg>