<svg xmlns="http://www.w3.org/2000/svg" viewBox="0 0 50 35.47" fill="currentcolor">
 <path d="M46.65,26.82V0H3.35V26.82H0v8.65H50V26.82ZM6.41,3.06H43.59V26.82H6.41ZM46.94,32.41H3.06V29.88H46.94Z" />
 <path d="M17.14,15.7a1.67,1.67,0,0,1-.8.9,1.78,1.78,0,0,1-.54.21,2.64,2.64,0,0,1-.55.06,2,2,0,0,1-.92-.21,2.21,2.21,0,0,1-.69-.56,2.47,2.47,0,0,1-.43-.8,3.06,3.06,0,0,1-.15-1,3.48,3.48,0,0,1,.13-.89,2.71,2.71,0,0,1,.39-.8,1.94,1.94,0,0,1,1.64-.8,3.64,3.64,0,0,1,.56.05,2.31,2.31,0,0,1,.56.19,1.88,1.88,0,0,1,.49.36,2,2,0,0,1,.35.58l2-1.42a3.66,3.66,0,0,0-1.51-1.51,4.78,4.78,0,0,0-2.39-.57,4.75,4.75,0,0,0-2,.42A4.86,4.86,0,0,0,11.7,11a4.78,4.78,0,0,0-1.29,3.23,4.73,4.73,0,0,0,.35,1.8,5.05,5.05,0,0,0,1,1.58,4.84,4.84,0,0,0,1.52,1.12,4.28,4.28,0,0,0,1.94.43A5.45,5.45,0,0,0,16.44,19a5.27,5.27,0,0,0,1.19-.43,4.12,4.12,0,0,0,1-.7,2.61,2.61,0,0,0,.65-.94Z" />
 <path d="M26.41,15.61a3.18,3.18,0,0,0,1-1.18,3.28,3.28,0,0,0,.37-1.55,3,3,0,0,0-.25-1.2,3.63,3.63,0,0,0-.66-1.06,3.29,3.29,0,0,0-1-.75,2.91,2.91,0,0,0-1.29-.29H20.2v9.53h2.61V16.18h1l1.68,2.93h3Zm-1.5-2a.58.58,0,0,1-.45.27H22.81v-2H24.4a.67.67,0,0,1,.48.27,1.06,1.06,0,0,1,.24.75A1.18,1.18,0,0,1,24.91,13.63Z" />
 <path d="M36.23,9.58l-2.07,4.48-2-4.48H29.25v9.53h2.62v-5l1.59,3.53h1.4l1.59-3.53v5h2.62V9.58Z" />
</svg>