<svg xmlns="http://www.w3.org/2000/svg" viewBox="0 0 50 50" fill="currentcolor">
 <path d="M49.29,21.18a3.16,3.16,0,0,0-1.8-1.09l-4.69-.94a18.41,18.41,0,0,0-1.08-2.61l2.65-4A3.12,3.12,0,0,0,44,8.63L41.38,6a3.17,3.17,0,0,0-1.91-.9,3.13,3.13,0,0,0-2,.51l-4,2.65A17.94,17.94,0,0,0,30.85,7.2l-.94-4.69A3.11,3.11,0,0,0,28.82.71a3.07,3.07,0,0,0-2-.71H23.16a3.08,3.08,0,0,0-2,.71,3.16,3.16,0,0,0-1.09,1.8L19.15,7.2a18.41,18.41,0,0,0-2.61,1.08l-4-2.65A3.12,3.12,0,0,0,8.63,6L6,8.63a3.12,3.12,0,0,0-.39,3.94l2.65,4A18.41,18.41,0,0,0,7.2,19.15l-4.69.94a3.16,3.16,0,0,0-1.8,1.09,3.08,3.08,0,0,0-.71,2v3.68a3.08,3.08,0,0,0,.71,2,3.16,3.16,0,0,0,1.8,1.09l4.69.94a18.41,18.41,0,0,0,1.08,2.61l-2.65,4A3.12,3.12,0,0,0,6,41.37L8.63,44a3.12,3.12,0,0,0,3.94.39l4-2.65a18.41,18.41,0,0,0,2.61,1.08l.94,4.69a3.16,3.16,0,0,0,1.09,1.8,3.08,3.08,0,0,0,2,.71h3.68a3.08,3.08,0,0,0,2-.71,3.11,3.11,0,0,0,1.09-1.8l.94-4.69a17.94,17.94,0,0,0,2.61-1.08l4,2.65a3.13,3.13,0,0,0,2,.51,3.17,3.17,0,0,0,1.91-.9L44,41.37a3.12,3.12,0,0,0,.39-3.94l-2.65-4a18.41,18.41,0,0,0,1.08-2.61l4.69-.94a3.16,3.16,0,0,0,1.8-1.09,3.08,3.08,0,0,0,.71-2V23.16A3.08,3.08,0,0,0,49.29,21.18Zm-2.41,5.66L41.27,28a1.56,1.56,0,0,0-1.2,1.12,15.71,15.71,0,0,1-1.52,3.67,1.53,1.53,0,0,0-.21.83,1.59,1.59,0,0,0,.26.82l3.17,4.75-2.61,2.61L34.41,38.6a1.59,1.59,0,0,0-.82-.26,1.53,1.53,0,0,0-.83.21,15.26,15.26,0,0,1-3.67,1.51,1.55,1.55,0,0,0-.73.45,1.46,1.46,0,0,0-.39.76l-1.12,5.61H23.16L22,41.27a1.46,1.46,0,0,0-.39-.76,1.55,1.55,0,0,0-.73-.45,15.26,15.26,0,0,1-3.67-1.51,1.55,1.55,0,0,0-.78-.21,1.58,1.58,0,0,0-.87.26l-4.75,3.17L8.23,39.16l3.17-4.75a1.59,1.59,0,0,0,.26-.82,1.51,1.51,0,0,0-.21-.83,15.26,15.26,0,0,1-1.51-3.67,1.5,1.5,0,0,0-.45-.73A1.46,1.46,0,0,0,8.73,28l-5.6-1.13V23.16L8.73,22a1.46,1.46,0,0,0,.76-.39,1.55,1.55,0,0,0,.45-.73,15.26,15.26,0,0,1,1.51-3.67,1.51,1.51,0,0,0,.21-.83,1.59,1.59,0,0,0-.26-.82L8.23,10.84l2.61-2.61,4.75,3.17a1.59,1.59,0,0,0,.82.26,1.51,1.51,0,0,0,.83-.21,15.26,15.26,0,0,1,3.67-1.51,1.5,1.5,0,0,0,.73-.45A1.46,1.46,0,0,0,22,8.73l1.13-5.6h3.68L28,8.73a1.46,1.46,0,0,0,.39.76,1.55,1.55,0,0,0,.73.45,15.26,15.26,0,0,1,3.67,1.51,1.53,1.53,0,0,0,.83.21,1.59,1.59,0,0,0,.82-.26l4.75-3.17,2.61,2.61L38.6,15.59a1.59,1.59,0,0,0-.26.82,1.51,1.51,0,0,0,.21.83,15.26,15.26,0,0,1,1.51,3.67,1.5,1.5,0,0,0,.45.73,1.46,1.46,0,0,0,.76.39l5.61,1.13Z" />
 <path d="M35.07,20.48,32,18.92h0l-.7-.34V17.19a1.55,1.55,0,0,0-1.56-1.56,1.58,1.58,0,0,0-1.11.45,1.56,1.56,0,0,0-.44.93L25.7,15.79h0l-.17-.07h-.08l-.07,0-.09,0-.14,0h-.3l-.14,0-.09,0-.07,0h-.08l-.17.07h0l-6.25,3.12h0l-3.12,1.56a1.55,1.55,0,0,0-.72.73,1.56,1.56,0,0,0-.11,1,1.59,1.59,0,0,0,.56.87,1.53,1.53,0,0,0,1,.34,1.5,1.5,0,0,0,.69-.17l.87-.43v8.41a1.57,1.57,0,0,0,1.56,1.56h12.5a1.57,1.57,0,0,0,1.56-1.56V22.84l.87.43a1.5,1.5,0,0,0,.69.17,1.53,1.53,0,0,0,1-.34,1.59,1.59,0,0,0,.56-.87,1.56,1.56,0,0,0-.11-1A1.55,1.55,0,0,0,35.07,20.48Zm-5.38,9.21H26.56V26.56a1.56,1.56,0,0,0-3.12,0v3.13H20.31V21.28L25,18.93l4.69,2.35Z" />
</svg>