<svg xmlns="http://www.w3.org/2000/svg" viewBox="0 0 50.02 45.3" fill="currentcolor">
 <path d="M49.86,34.26,47.8,23.07a10.3,10.3,0,0,0-10.2-9H12.42a10.3,10.3,0,0,0-10.2,9L.16,34.26a9.32,9.32,0,0,0,18.32,3.43,8.65,8.65,0,0,0,.16-1.83H31.38A9.32,9.32,0,0,0,50,36.11a9.47,9.47,0,0,0-.16-1.84Zm-5.52,6.9a6.29,6.29,0,0,1-8-.62,6.6,6.6,0,0,1-2-4.71,2.94,2.94,0,0,0-2.93-2.92H18.64a2.94,2.94,0,0,0-2.93,2.92,6.45,6.45,0,0,1-6.42,6.48H9.08A6.45,6.45,0,0,1,2.94,36.1c0-.83,0-.4,2.18-12.54v-.08A7.36,7.36,0,0,1,12.42,17H37.6a7.34,7.34,0,0,1,7.29,6.44c0,.06-.14-.73,2.08,11.31A6.43,6.43,0,0,1,44.34,41.16Z" />
 <path d="M18,24.29h-2.5V21.84a1.47,1.47,0,0,0-2.94,0v2.45H10.12a1.47,1.47,0,0,0,0,2.94h2.45v2.45a1.47,1.47,0,1,0,2.94,0h0V27.23H18a1.47,1.47,0,0,0,0-2.94Z" />
 <path d="M37.42,21.56a1.47,1.47,0,1,0-1.15,1.73l.15,0A1.47,1.47,0,0,0,37.42,21.56Z" />
 <path d="M39.9,24.29a1.47,1.47,0,0,0-1.47,1.47h0v.1a1.47,1.47,0,0,0,2.94,0v-.1A1.47,1.47,0,0,0,39.9,24.29Z" />
 <path d="M32.06,24.29a1.47,1.47,0,0,0-1.47,1.47v.1a1.47,1.47,0,1,0,2.94,0v-.1a1.47,1.47,0,0,0-1.47-1.47Z" />
 <path d="M37.42,29.39a1.47,1.47,0,1,0-1.15,1.73l.15,0A1.47,1.47,0,0,0,37.42,29.39Z" />
 <path d="M21.2,7.85a1.47,1.47,0,0,0,2.08,2.08h0a2.44,2.44,0,0,1,3.45,0h0a1.48,1.48,0,0,0,2.08,0,1.46,1.46,0,0,0,0-2.08A5.4,5.4,0,0,0,21.2,7.85Z" />
 <path d="M18.85,5.49a8.72,8.72,0,0,1,12.32,0,1.47,1.47,0,0,0,2.21-1.94.8.8,0,0,0-.13-.13,11.64,11.64,0,0,0-16.46,0l0,0a1.46,1.46,0,0,0,.13,2.07A1.48,1.48,0,0,0,18.85,5.49Z" />
</svg>