<svg xmlns="http://www.w3.org/2000/svg" viewBox="0 0 50 50" fill="currentcolor">
 <path d="M45.61,11.72h-6a7.25,7.25,0,0,0,1.47-4.4A7.33,7.33,0,0,0,33.79,0a6.59,6.59,0,0,0-5.65,2.74A28.79,28.79,0,0,0,25,9.26a28.79,28.79,0,0,0-3.14-6.52A6.59,6.59,0,0,0,16.21,0,7.33,7.33,0,0,0,8.89,7.32a7.25,7.25,0,0,0,1.47,4.4h-6A4.4,4.4,0,0,0,0,16.11V19a4.41,4.41,0,0,0,2.93,4.15V45.61A4.4,4.4,0,0,0,7.32,50H42.68a4.4,4.4,0,0,0,4.39-4.39V23.19A4.41,4.41,0,0,0,50,19V16.11A4.4,4.4,0,0,0,45.61,11.72Zm-17.92-1.3c2.24-5.69,3.1-7.49,6.1-7.49a4.4,4.4,0,0,1,0,8.79H27.18ZM16.21,2.93c3,0,3.86,1.8,6.1,7.49l.51,1.3H16.21a4.4,4.4,0,0,1,0-8.79Zm2.93,44.14H7.32a1.47,1.47,0,0,1-1.46-1.46V23.44H19.14Zm0-26.56H4.39A1.47,1.47,0,0,1,2.93,19V16.11a1.47,1.47,0,0,1,1.46-1.46H19.14Zm8.79,26.56H22.07V14.65h5.86Zm16.21-1.46a1.47,1.47,0,0,1-1.46,1.46H30.86V23.44H44.14ZM47.07,19a1.47,1.47,0,0,1-1.46,1.47H30.86V14.65H45.61a1.47,1.47,0,0,1,1.46,1.46Z" />
</svg>