<svg xmlns="http://www.w3.org/2000/svg" viewBox="0 0 50 42" fill="currentcolor">
 <path d="M25,0A25.54,25.54,0,0,0,7.39,6.93L7.32,7s0,0,0,.06A22.92,22.92,0,0,0,6.15,39.41,1.38,1.38,0,0,0,8,39.55l5.22-4.21a1.23,1.23,0,0,0,.14-1.82,14.3,14.3,0,0,1-3.86-9.73C9.52,15.67,16.46,9.06,25,9.06a16,16,0,0,1,9.77,3.31c1.37,1.06,3.07-.91,1.69-2A18.69,18.69,0,0,0,26.34,6.57v-4c11.68.67,21,9.9,21,21.18a20.57,20.57,0,0,1-4.64,13L39.5,34.19a16.75,16.75,0,0,0,3.66-10.4,16.43,16.43,0,0,0-.76-4.93c-.51-1.63-3.06-.88-2.56.72a14.19,14.19,0,0,1-3.22,13.94,1.23,1.23,0,0,0,.14,1.81L42,39.53a1.4,1.4,0,0,0,1.88-.13A23.15,23.15,0,0,0,50,23.79C50,10.67,38.79,0,25,0ZM13.16,10.72l-2.94-2.8A22.78,22.78,0,0,1,23.66,2.61v4A18.55,18.55,0,0,0,13.16,10.72ZM10.51,34.2,7.33,36.77a20.6,20.6,0,0,1-4.6-11.71H6.9A16.81,16.81,0,0,0,10.51,34.2ZM6.91,22.52H2.75A20.56,20.56,0,0,1,8.32,9.72l2.95,2.8A16.78,16.78,0,0,0,6.91,22.52Z" />
 <path d="M28,30.28c1.26-1.2,11.69-14.22,12.88-15.7.92-1.15-.57-2.63-1.81-1.83C36.41,14.45,22.93,23,21.67,24.22a4.14,4.14,0,0,0,0,6.06A4.67,4.67,0,0,0,28,30.28ZM23.56,26c.58-.55,5.35-3.67,10.27-6.84-3.62,4.48-7.11,8.74-7.69,9.29C24.43,30.1,21.85,27.65,23.56,26Z" />
 <path d="M20.39,37.17h9.22a1.28,1.28,0,1,0,0-2.55H20.39A1.28,1.28,0,1,0,20.39,37.17Z" />
 <path d="M36.27,39.45H13.73a1.28,1.28,0,1,0,0,2.55H36.27A1.28,1.28,0,1,0,36.27,39.45Z" />
</svg>