<svg xmlns="http://www.w3.org/2000/svg" viewBox="0 0 50 50" fill="currentcolor">
 <path d="M36.47,18.75a1.46,1.46,0,1,0,1.62-2.44L25.81,8.15a1.49,1.49,0,0,0-1.62,0L11.91,16.31a1.46,1.46,0,1,0,1.62,2.44h0L25,11.13Z" />
 <path d="M30.51,22.7a1.46,1.46,0,1,0,1.62-2.44l-6.32-4.2a1.49,1.49,0,0,0-1.62,0l-6.32,4.2a1.46,1.46,0,0,0,1.62,2.44L25,19Z" />
 <path d="M49.35,31.69,45.23,29l4.12-2.73a1.48,1.48,0,0,0,.4-2,1.52,1.52,0,0,0-.4-.4L45.23,21l4.12-2.73a1.48,1.48,0,0,0,.4-2,1.52,1.52,0,0,0-.4-.4L25.81.24a1.49,1.49,0,0,0-1.62,0L.65,15.87a1.48,1.48,0,0,0-.4,2,1.52,1.52,0,0,0,.4.4L4.77,21,.65,23.78a1.48,1.48,0,0,0-.4,2,1.52,1.52,0,0,0,.4.4L4.77,29,.65,31.69a1.48,1.48,0,0,0-.4,2,1.52,1.52,0,0,0,.4.4L24.19,49.76a1.49,1.49,0,0,0,1.62,0L49.35,34.13a1.48,1.48,0,0,0,.4-2A1.52,1.52,0,0,0,49.35,31.69ZM25,3.22,45.89,17.09,25,31,4.11,17.09ZM7.42,22.8,24.19,33.94a1.49,1.49,0,0,0,1.62,0L42.58,22.8,45.89,25,25,38.87,4.11,25ZM25,46.78,4.11,32.91l3.31-2.2L24.19,41.85a1.49,1.49,0,0,0,1.62,0L42.58,30.71l3.31,2.2Z" />
</svg>