<svg xmlns="http://www.w3.org/2000/svg" viewBox="0 0 50 50" fill="currentcolor">
 <path d="M44.63,0H5.37A5.38,5.38,0,0,0,0,5.37V44.63A5.38,5.38,0,0,0,5.37,50H44.63A5.38,5.38,0,0,0,50,44.63V5.37A5.38,5.38,0,0,0,44.63,0Zm2.44,5.37v6.35H26.46V2.93H44.63A2.44,2.44,0,0,1,47.07,5.37Zm-44.14,0A2.44,2.44,0,0,1,5.37,2.93H23.54v8.79H2.93ZM47.07,44.63a2.44,2.44,0,0,1-2.44,2.44H5.37a2.44,2.44,0,0,1-2.44-2.44v-30H47.07Z" />
 <path d="M7.42,8.79A1.47,1.47,0,1,0,6,7.32,1.47,1.47,0,0,0,7.42,8.79Z" />
 <path d="M13.28,8.79a1.47,1.47,0,1,0-1.46-1.47A1.47,1.47,0,0,0,13.28,8.79Z" />
 <path d="M19.14,8.79a1.47,1.47,0,1,0-1.46-1.47A1.47,1.47,0,0,0,19.14,8.79Z" />
 <path d="M28.91,23.44H21.09a1.46,1.46,0,0,0-1.46,1.46v7.81a1.46,1.46,0,0,0,1.46,1.47h7.82a1.46,1.46,0,0,0,1.46-1.47V24.9A1.46,1.46,0,0,0,28.91,23.44Zm-1.47,7.81H22.56V26.37h4.88Z" />
 <path d="M42.58,23.44H34.77A1.46,1.46,0,0,0,33.3,24.9v7.81a1.47,1.47,0,0,0,1.47,1.47h7.81A1.46,1.46,0,0,0,44,32.71V24.9A1.46,1.46,0,0,0,42.58,23.44Zm-1.47,7.81H36.23V26.37h4.88Z" />
 <path d="M15.23,23.44H7.42A1.46,1.46,0,0,0,6,24.9v7.81a1.46,1.46,0,0,0,1.46,1.47h7.81a1.47,1.47,0,0,0,1.47-1.47V24.9A1.46,1.46,0,0,0,15.23,23.44Zm-1.46,7.81H8.89V26.37h4.88Z" />
 <path d="M28.91,37.11H21.09a1.47,1.47,0,0,0,0,2.93h7.82a1.47,1.47,0,0,0,0-2.93Z" />
 <path d="M15.23,37.11H7.42a1.47,1.47,0,0,0,0,2.93h7.81a1.47,1.47,0,1,0,0-2.93Z" />
 <path d="M42.58,37.11H34.77a1.47,1.47,0,1,0,0,2.93h7.81a1.47,1.47,0,0,0,0-2.93Z" />
 <path d="M6,19a1.46,1.46,0,0,0,1.46,1.47H42.58a1.47,1.47,0,0,0,0-2.93H7.42A1.46,1.46,0,0,0,6,19Z" />
</svg>