<svg xmlns="http://www.w3.org/2000/svg" viewBox="0 0 50 43.55" fill="currentcolor">
 <path d="M25,17a8.5,8.5,0,1,0-8.5-8.5A8.51,8.51,0,0,0,25,17ZM25,2.93A5.57,5.57,0,1,1,19.43,8.5h0A5.59,5.59,0,0,1,25,2.93Z" />
 <path d="M42.19,17a5.37,5.37,0,1,0-5.37-5.37h0A5.39,5.39,0,0,0,42.19,17Zm0-7.81a2.44,2.44,0,1,1-2.44,2.44h0a2.44,2.44,0,0,1,2.43-2.45h0Z" />
 <path d="M43.37,20.31H41.1a6.63,6.63,0,0,0-6,3.85,11.78,11.78,0,0,0-8.71-3.85H23.64a11.81,11.81,0,0,0-8.72,3.85,6.63,6.63,0,0,0-6-3.85H6.63A6.62,6.62,0,0,0,0,26.9V37.57a2.87,2.87,0,0,0,2.87,2.86h9a3.42,3.42,0,0,0,3.41,3.12H34.76a3.42,3.42,0,0,0,3.41-3.12H47a3,3,0,0,0,3-3V26.9A6.62,6.62,0,0,0,43.37,20.31ZM2.93,26.9a3.68,3.68,0,0,1,3.7-3.66H8.9a3.68,3.68,0,0,1,3.7,3.66h0v1c-1,2.56-.78,4.1-.78,9.59H2.93ZM35.25,40.13a.49.49,0,0,1-.48.5H15.24a.51.51,0,0,1-.49-.5v-8a8.89,8.89,0,0,1,8.88-8.89h2.73a8.9,8.9,0,0,1,8.89,8.89Zm11.82-2.66c0,.05.55,0-8.89,0,0-5.53.21-7-.78-9.59v-1a3.68,3.68,0,0,1,3.7-3.66h2.27a3.68,3.68,0,0,1,3.7,3.66h0Z" />
 <path d="M7.81,17a5.37,5.37,0,1,0-5.37-5.37h0A5.39,5.39,0,0,0,7.81,17Zm0-7.81a2.44,2.44,0,1,1-2.44,2.44A2.44,2.44,0,0,1,7.81,9.19h0Z" />
</svg>