<svg xmlns="http://www.w3.org/2000/svg" viewBox="0 0 50 44.6" fill="currentcolor">
 <path d="M14.45,34.35a1.65,1.65,0,0,1,0-3.3c6.07,0,22.09,0,28.35,0a3.65,3.65,0,0,0,3.57-2.83l3.55-15.4A3,3,0,0,0,47.05,9.2c-2.52,0-23.91-.1-34.87-.14L10.45,2.62A3.56,3.56,0,0,0,7,0H1.47a1.47,1.47,0,1,0,0,2.93H7a.62.62,0,0,1,.59.45l6.67,24.75a4.56,4.56,0,0,0-4.41,4.65,4.59,4.59,0,0,0,4.57,4.5h2.14a5,5,0,0,0-.5,2.19,5.13,5.13,0,0,0,10.26,0,5,5,0,0,0-.49-2.19h9.25a5.13,5.13,0,1,0,9.77,2.19,5.1,5.1,0,0,0-.54-2.27,1.46,1.46,0,0,0-.46-2.85Zm9,5.12a2.2,2.2,0,1,1-2.2-2.19h0A2.19,2.19,0,0,1,23.42,39.47Zm16.33,2.2a2.2,2.2,0,0,1,0-4.39h.07a2.2,2.2,0,0,1,0,4.39Zm7.31-29.53a0,0,0,0,1,0,0l-1.5,6.49H40.49l.87-6.55,5.68,0ZM32,28.13V21.59h5.2l-.86,6.54Zm-7.27,0-.87-6.54H29v6.54Zm-6.74,0h0a.78.78,0,0,1-.76-.58l-1.61-6h5.3l.87,6.54Zm5.48-9.47L22.54,12l6.48,0v6.6Zm8.53,0V12.07l6.45,0-.86,6.56ZM19.58,12l.89,6.64h-5.7L13,12ZM42.8,28.13H39.24l.87-6.54h4.78l-1.38,6A.73.73,0,0,1,42.8,28.13Z" />
</svg>