<svg xmlns="http://www.w3.org/2000/svg" viewBox="0 0 50 50" fill="currentcolor">
 <path d="M45.61,11.82H24.13L20.53,1a1.46,1.46,0,0,0-1.39-1H4.39A4.4,4.4,0,0,0,0,4.39v29.4a4.4,4.4,0,0,0,4.39,4.39H20.54L24.1,49a1.47,1.47,0,0,0,1.4,1H45.61A4.4,4.4,0,0,0,50,45.61V16.21A4.4,4.4,0,0,0,45.61,11.82ZM4.39,35.25a1.46,1.46,0,0,1-1.46-1.46V4.39A1.47,1.47,0,0,1,4.39,2.93H18.08L28.83,35.25Zm24.2,2.93-2.87,6.34-2.1-6.34Zm18.48,7.43a1.47,1.47,0,0,1-1.46,1.46H27.77l4.42-9.75a1.45,1.45,0,0,0,.06-1.06L25.1,14.75H45.61a1.46,1.46,0,0,1,1.46,1.46Z" />
 <path d="M42.58,23.54h-4.4V22.07a1.47,1.47,0,0,0-2.93,0v1.47H30.86a1.46,1.46,0,1,0,0,2.92h8.51a18.59,18.59,0,0,1-2.63,4.61c-.25-.34-.5-.68-.74-1a1.46,1.46,0,1,0-2.42,1.64c.41.61.84,1.2,1.27,1.75-.73.85-1.45,1.62-2.09,2.24a1.48,1.48,0,0,0,0,2.07,1.46,1.46,0,0,0,2.07,0c.06,0,.85-.83,1.92-2,1,1.19,1.82,2,1.88,2a1.46,1.46,0,0,0,2.07-2.07s-.91-.91-2-2.25a18.9,18.9,0,0,0,3.77-7h.18a1.46,1.46,0,0,0,0-2.92Z" />
 <path d="M13.43,18.19V13.52a6.25,6.25,0,0,1,2.74,1.19,1.06,1.06,0,0,0,.55.18,1.15,1.15,0,0,0,1.14-1.13,1,1,0,0,0-.3-.72,7,7,0,0,0-4.15-1.67V9.81a.8.8,0,0,0-.8-.81h0a.83.83,0,0,0-.84.81v1.51c-3,.21-5,2.06-5,4.51,0,3,2.56,3.84,5,4.51v5.3a6.94,6.94,0,0,1-3.51-1.55,1.07,1.07,0,0,0-.66-.24A1.16,1.16,0,0,0,6.49,25a1,1,0,0,0,.3.72,7.82,7.82,0,0,0,5,2v1.49a.82.82,0,0,0,.86.78.81.81,0,0,0,.81-.81V27.71c3.62-.24,5.07-2.44,5.07-4.78C18.5,19.81,15.88,18.85,13.43,18.19Zm-1.67-.43c-1.45-.42-2.57-.86-2.57-2.09s1-2.12,2.57-2.24Zm1.67,7.9V20.84c1.5.42,2.66,1,2.65,2.39C16.08,24.23,15.39,25.43,13.43,25.66Z" />
</svg>