<svg xmlns="http://www.w3.org/2000/svg" viewBox="0 0 43.72 50" fill="currentcolor">
 <path d="M34.41,0H9.31A9.31,9.31,0,0,0,0,9.31V40.69A9.31,9.31,0,0,0,9.31,50h25.1a9.31,9.31,0,0,0,9.31-9.31V9.31A9.3,9.3,0,0,0,34.41,0Zm6.38,40.69a6.38,6.38,0,0,1-6.38,6.38H9.31a6.38,6.38,0,0,1-6.38-6.38V9.31A6.38,6.38,0,0,1,9.31,2.93h25.1a6.38,6.38,0,0,1,6.38,6.38Z" />
 <path d="M24.22,29.6a1.47,1.47,0,0,0,0-2.93H19.51A1.47,1.47,0,0,0,18,28.14V40.69a1.46,1.46,0,0,0,1.47,1.46h4.71a1.47,1.47,0,0,0,0-2.93H21V35.88h1.68a1.47,1.47,0,0,0,0-2.93H21V29.6Z" />
 <path d="M34.41,29.6a1.47,1.47,0,0,0,0-2.93h-4.7a1.47,1.47,0,0,0-1.47,1.47V40.69a1.46,1.46,0,0,0,1.47,1.46h4.7a1.47,1.47,0,0,0,0-2.93H31.17V35.88h1.68a1.47,1.47,0,0,0,0-2.93H31.17V29.6Z" />
 <path d="M14,26.67H9.31a1.47,1.47,0,0,0-1.47,1.47V40.69a1.47,1.47,0,0,0,2.93,0V35.88h2.46a1.47,1.47,0,0,0,0-2.93H10.77V29.6H14a1.47,1.47,0,0,0,0-2.93Z" />
 <path d="M31.28,7.84H28.14a4.6,4.6,0,0,0-4.6,4.61v6.27a4.6,4.6,0,0,0,4.6,4.61h3.14a4.6,4.6,0,0,0,4.6-4.61V12.45A4.61,4.61,0,0,0,31.28,7.84ZM33,18.72a1.68,1.68,0,0,1-1.67,1.68H28.14a1.68,1.68,0,0,1-1.68-1.68V12.45a1.68,1.68,0,0,1,1.68-1.68h3.14A1.68,1.68,0,0,1,33,12.45Z" />
 <path d="M19.19,23.25a1.46,1.46,0,0,0,1-1.39V9.31a1.47,1.47,0,0,0-2.93,0v8.16l-6.78-9a1.47,1.47,0,0,0-2.64.88V21.86a1.47,1.47,0,0,0,2.93,0V13.7l6.78,9a1.47,1.47,0,0,0,1.64.51Z" />
</svg>