<svg xmlns="http://www.w3.org/2000/svg" viewBox="0 0 50.02 50.01" fill="currentcolor">
 <path d="M27.94,19.12h-4.4V30.88h2.92V27.94h1.48a4.41,4.41,0,1,0,0-8.82Zm0,5.89H26.46V22h1.48a1.5,1.5,0,0,1,0,3Z" transform="translate(0.01 0.01)" />
 <path d="M16.76,19.12a4.42,4.42,0,0,0-4.41,4.4v7.36h2.93V27.94h3v2.94h2.93V23.52a4.4,4.4,0,0,0-4.42-4.4ZM15.28,25V23.52a1.5,1.5,0,1,1,3,0h0V25Z" transform="translate(0.01 0.01)" />
 <path d="M34.26,19.12h2.93V30.88H34.26Z" transform="translate(0.01 0.01)" />
 <path d="M35.72,9.18l1.9-3.31h3.82a4.41,4.41,0,1,0,0-2.93H35.92L33.18,7.73A18.77,18.77,0,0,0,29.41,6.4V0H26.48V5.94c-.49,0-1-.06-1.48-.06a12.21,12.21,0,0,0-1.48.06V0H20.59V6.4a18.77,18.77,0,0,0-3.77,1.33L14.08,2.94H8.56a4.41,4.41,0,1,0,0,2.93h3.82l1.89,3.31A19.25,19.25,0,0,0,8.9,14.71H0v2.93H7.36a18.8,18.8,0,0,0-1.42,5.9H0v2.92H5.94a18.8,18.8,0,0,0,1.42,5.9H0v2.93H8.9a19.25,19.25,0,0,0,5.37,5.53l-1.89,3.31H8.56a4.41,4.41,0,1,0,0,2.93h5.52l2.74-4.79a18.77,18.77,0,0,0,3.77,1.33V50h2.93V44.06c.49,0,1,.06,1.48.06a12.21,12.21,0,0,0,1.48-.06V50h2.93V43.6a18.77,18.77,0,0,0,3.77-1.33l2.74,4.79h5.52a4.41,4.41,0,1,0,0-2.93H37.62l-1.9-3.31a19.15,19.15,0,0,0,5.38-5.53H50V32.36H42.64a18.8,18.8,0,0,0,1.42-5.9H50V23.54H44.06a18.8,18.8,0,0,0-1.42-5.9H50V14.71H41.1A19.15,19.15,0,0,0,35.72,9.18Zm9.87-6.25a1.48,1.48,0,1,1-1.47,1.49h0A1.49,1.49,0,0,1,45.59,2.93ZM4.41,5.88A1.48,1.48,0,1,1,5.88,4.39v0A1.47,1.47,0,0,1,4.41,5.88Zm0,41.19a1.48,1.48,0,1,1,1.47-1.49h0A1.49,1.49,0,0,1,4.41,47.07Zm41.18-3a1.48,1.48,0,1,1-1.47,1.49v0a1.48,1.48,0,0,1,1.47-1.42ZM25,41.19A16.19,16.19,0,1,1,41.19,25h0A16.2,16.2,0,0,1,25,41.19Z" transform="translate(0.01 0.01)" />
</svg>