<svg xmlns="http://www.w3.org/2000/svg" viewBox="0 0 43.95 50" fill="currentcolor">
 <path d="M36.88,1.82A55.57,55.57,0,0,0,22,0,55.62,55.62,0,0,0,7.06,1.82C4.12,2.68,0,4.36,0,7.42V42.58c0,3.06,4.13,4.74,7.06,5.6A55.62,55.62,0,0,0,22,50a55.57,55.57,0,0,0,14.91-1.82c2.94-.86,7.07-2.54,7.07-5.6V7.42C44,4.36,39.83,2.68,36.88,1.82ZM22,2.93A52.41,52.41,0,0,1,36.06,4.64c4,1.18,5,2.43,5,2.78s-.91,1.58-5,2.74A53.62,53.62,0,0,1,22,11.82c-12.29,0-19-3-19-4.4S9.54,2.93,22,2.93ZM36.06,45.36A52.41,52.41,0,0,1,22,47.07c-12.36,0-19-3.12-19-4.49v-2c3.35,1.91,9.07,2.94,14.56,3.29L17.67,41A43.14,43.14,0,0,1,6.55,39c-3-1-3.62-2-3.62-2.31V34.77c4.76,2.69,13.53,3.41,19,3.41S36.28,37.45,41,34.77v7.81C41,42.93,40.11,44.18,36.06,45.36ZM22,35.25c-12.29,0-19-3-19-4.39v-2c3.35,1.91,9.07,2.94,14.56,3.29l.18-2.93C7.51,28.63,2.93,26.05,2.93,25V23.05c4.77,2.7,13.54,3.41,19,3.41S36.25,25.75,41,23.05v7.81C41,32.19,34.48,35.25,22,35.25Zm0-11.71c-12.29,0-19-3-19-4.4V17.19c3.35,1.9,9.07,2.94,14.56,3.28l.18-2.93C7.51,16.91,2.93,14.33,2.93,13.28V11.34C7.7,14,16.47,14.75,22,14.75A56.35,56.35,0,0,0,36.88,13,19.72,19.72,0,0,0,41,11.34v7.8C41,20.47,34.48,23.54,22,23.54Z" />
 <path d="M20.51,17.68h2.93v2.93H20.51Z" />
 <path d="M20.51,29.39h2.93v2.93H20.51Z" />
 <path d="M20.51,41.11h2.93V44H20.51Z" />
</svg>