<svg xmlns="http://www.w3.org/2000/svg" viewBox="0 0 50 50" fill="currentcolor">
 <path d="M48.71,16.24l-15-14.95a4.39,4.39,0,0,0-6.22,0L8.77,20.06H4.39A4.4,4.4,0,0,0,0,24.45V45.61A4.4,4.4,0,0,0,4.39,50H38.05a4.4,4.4,0,0,0,4.4-4.39V28.73l6.26-6.27A4.39,4.39,0,0,0,48.71,16.24ZM29.61,3.36a1.45,1.45,0,0,1,1-.43,1.43,1.43,0,0,1,1,.43l7.71,7.7-9,9H12.91Zm9.91,42.25a1.47,1.47,0,0,1-1.47,1.46H4.39a1.47,1.47,0,0,1-1.46-1.46V24.45A1.46,1.46,0,0,1,4.39,23H38.05a1.46,1.46,0,0,1,1.47,1.46ZM38.65,20.1a4,4,0,0,0-.6,0H34.54l6.92-6.92,2.08,2.07Zm8,.29-4.19,4.2v-.14a4.38,4.38,0,0,0-1.11-2.91l4.27-4.26,1,1A1.47,1.47,0,0,1,46.64,20.39Z" />
 <path d="M5.86,39.71h5.45v2.93H5.86Z" />
 <path d="M14.28,39.71h5.46v2.93H14.28Z" />
 <path d="M22.71,39.71h5.45v2.93H22.71Z" />
 <path d="M31.13,39.71h5.46v2.93H31.13Z" />
 <path d="M15.75,27.42H5.86v8.79h9.89Zm-2.93,5.86h-4V30.35h4Z" />
</svg>