<svg xmlns="http://www.w3.org/2000/svg" viewBox="0 0 50 50" fill="currentcolor">
 <path d="M5.6,22.24a1.94,1.94,0,0,1,0-2.76L17,8a2,2,0,0,1,2.76,0L27,15.23,38.31,3.91h-5a2,2,0,0,1,0-3.91H43a2,2,0,0,1,2,2v9.74a2,2,0,0,1-3.91,0v-5L28.36,19.37a1.94,1.94,0,0,1-2.76,0l-7.19-7.19-10,10.06A2,2,0,0,1,5.6,22.24ZM14,36.52V48.05A2,2,0,0,1,12,50H2a2,2,0,0,1-1.95-2V36.52a2,2,0,0,1,2-2H12A2,2,0,0,1,14,36.52Zm-3.9,2H3.91v7.61h6.14ZM32,29.09v19a2,2,0,0,1-2,2H20a2,2,0,0,1-2-2v-19a2,2,0,0,1,2-1.95H30A2,2,0,0,1,32,29.09Zm-3.91,2H21.93v15h6.14ZM50,21.67V48.05a2,2,0,0,1-2,2H38a2,2,0,0,1-2-2V21.67a2,2,0,0,1,2-2h10A2,2,0,0,1,50,21.67Zm-3.91,1.95H40V46.09h6.14Z" />
</svg>