<svg xmlns="http://www.w3.org/2000/svg" viewBox="0 0 50 44.34" fill="currentcolor">
 <path d="M49.31,38.52l-21-36.29A4,4,0,0,0,25,0a4,4,0,0,0-3.36,2.23L.69,38.52a4,4,0,0,0-.25,4,4,4,0,0,0,3.61,1.8H46a3.65,3.65,0,0,0,3.36-5.82ZM47,41.08c-.1.16-.47.33-1.08.33H4.05c-.61,0-1-.17-1.08-.33s-.05-.57.25-1.1l21-36.29c.31-.52.64-.76.83-.76s.52.24.83.76L46.78,40C47.08,40.51,47.12,40.91,47,41.08Z" />
 <path d="M25,32a3.82,3.82,0,1,0,3.82,3.82A3.82,3.82,0,0,0,25,32Zm0,4.7a.89.89,0,1,1,.89-.88A.88.88,0,0,1,25,36.7Z" />
 <path d="M25,9.71a3.83,3.83,0,0,0-3.82,3.82V26.4a3.82,3.82,0,0,0,7.64,0V13.53A3.83,3.83,0,0,0,25,9.71Zm.89,16.69a.89.89,0,0,1-1.78,0V13.53a.89.89,0,0,1,1.78,0Z" />
</svg>