<svg xmlns="http://www.w3.org/2000/svg" viewBox="0 0 30.27 50" fill="currentcolor">
 <path d="M28.22,34.27H22.75V28.2a15.13,15.13,0,1,0-15.24,0v6.07H2a1.48,1.48,0,0,0-1.36.91A1.47,1.47,0,0,0,1,36.78l13.09,12.8a1.44,1.44,0,0,0,1,.42,1.48,1.48,0,0,0,1-.42l13.09-12.8a1.46,1.46,0,0,0-1-2.51ZM2.93,15.13a12.2,12.2,0,1,1,12.2,12.2A12.21,12.21,0,0,1,2.93,15.13Zm12.2,31.36L5.64,37.2H9a1.46,1.46,0,0,0,1.46-1.46V29.52a15,15,0,0,0,9.38,0v6.22a1.46,1.46,0,0,0,1.47,1.46h3.34Z" />
 <path d="M15,13.51c-1.52-.56-1.77-.93-1.76-1.55,0-1.21,1.22-1.34,1.73-1.33.76,0,2,.36,2,1.31a1.47,1.47,0,0,0,2.93,0,4.2,4.2,0,0,0-3.35-4V6.84a1.47,1.47,0,0,0-2.93,0v1a4.6,4.6,0,0,0-1.7.8,4,4,0,0,0-1.58,3.27c0,3,2.66,4,3.95,4.42" />
 <path d="M14.25,16.36c2,.7,2.79,1.12,2.79,1.9,0,1.2-1.2,1.33-1.72,1.33h0c-.76,0-2-.36-2-1.31a1.47,1.47,0,0,0-2.93,0,4.21,4.21,0,0,0,3.36,4v1.11a1.47,1.47,0,1,0,2.93,0V22.35a4.76,4.76,0,0,0,1.7-.8A4,4,0,0,0,20,18.28c0-3.05-3.2-4.16-5-4.77" />
</svg>