<svg xmlns="http://www.w3.org/2000/svg" viewBox="0 0 46 46" fill="currentcolor">
 <path d="M41.43,4.57A15.6,15.6,0,0,0,15,13.42a15.78,15.78,0,0,0,1.24,8.63L0,38.24V46H7.76l2.52-2.51,0-2.84,2.88,0,3.08-3.09V35l2.6,0L24,29.81a15.78,15.78,0,0,0,8.63,1.24A15.59,15.59,0,0,0,46,15.6,15.5,15.5,0,0,0,41.43,4.57ZM39.52,24.73A12.82,12.82,0,0,1,24.32,27l-.89-.47-5.74,5.75-4.16,0v4.11L12,37.94,7.54,38l0,4.41-.92.92H2.7V39.35L19.48,22.57,19,21.68a12.9,12.9,0,1,1,20.51,3.05Z" />
 <path d="M29.74,8.76a5.31,5.31,0,0,0,0,7.5,5.3,5.3,0,0,0,9.05-3.75,5.3,5.3,0,0,0-9-3.75Zm5.59,5.6a2.62,2.62,0,1,1,.76-1.85A2.6,2.6,0,0,1,35.33,14.36Z" />
</svg>