<svg xmlns="http://www.w3.org/2000/svg" viewBox="0 0 46.67 46.67" fill="currentcolor">
 <path d="M46.58,21.33a.7.7,0,0,0-.12-.28.64.64,0,0,0-.25-.18L43.4,19.75a.78.78,0,0,1-.33-.24.82.82,0,0,1-.18-.36,19.6,19.6,0,0,0-2.77-6.68.91.91,0,0,1-.13-.38.89.89,0,0,1,.06-.4L41.24,8.9a.52.52,0,0,0,.06-.3.53.53,0,0,0-.12-.29c-.38-.45-.8-.92-1.35-1.49s-1-1-1.47-1.33a.5.5,0,0,0-.28-.12.55.55,0,0,0-.31,0L35,6.61a.78.78,0,0,1-.4.06.72.72,0,0,1-.38-.13,20,20,0,0,0-6.68-2.77.74.74,0,0,1-.37-.17.86.86,0,0,1-.23-.33L25.79.45a.53.53,0,0,0-.18-.24.5.5,0,0,0-.28-.12,20,20,0,0,0-2-.09c-.75,0-1.4,0-2,.08a.69.69,0,0,0-.29.12.64.64,0,0,0-.19.25L19.75,3.27a.78.78,0,0,1-.24.33.71.71,0,0,1-.36.17,19.82,19.82,0,0,0-6.68,2.78.86.86,0,0,1-.38.13.77.77,0,0,1-.4-.07L8.9,5.42a.61.61,0,0,0-.3,0,.61.61,0,0,0-.29.11c-.45.38-.92.81-1.48,1.36s-1,1-1.34,1.46a.67.67,0,0,0-.12.29.55.55,0,0,0,0,.31l1.19,2.79a.68.68,0,0,1,.06.4.79.79,0,0,1-.13.38,19.78,19.78,0,0,0-2.76,6.68.82.82,0,0,1-.18.36.78.78,0,0,1-.33.24L.45,20.87a.55.55,0,0,0-.24.19.47.47,0,0,0-.12.28C0,22,0,22.67,0,23.33a18.81,18.81,0,0,0,.08,2,.69.69,0,0,0,.12.29.76.76,0,0,0,.25.19l2.82,1.12a.81.81,0,0,1,.51.6A19.69,19.69,0,0,0,6.55,34.2a.82.82,0,0,1,.13.38.79.79,0,0,1-.07.4L5.42,37.77a.61.61,0,0,0,0,.3.57.57,0,0,0,.11.28c.38.46.81.93,1.36,1.49s1,1,1.47,1.34a.7.7,0,0,0,.28.12.65.65,0,0,0,.31,0l2.79-1.19A.71.71,0,0,1,12,40a.91.91,0,0,1,.46.13,19.82,19.82,0,0,0,6.68,2.78.71.71,0,0,1,.36.17.78.78,0,0,1,.24.33l1.12,2.82a.55.55,0,0,0,.19.24.47.47,0,0,0,.28.12c.66.06,1.33.09,2,.09a19.64,19.64,0,0,0,2-.09.5.5,0,0,0,.29-.12.6.6,0,0,0,.19-.25l1.12-2.81a.81.81,0,0,1,.6-.51,19.6,19.6,0,0,0,6.68-2.77.82.82,0,0,1,.38-.13.91.91,0,0,1,.4.06l2.79,1.19a.52.52,0,0,0,.3.06.5.5,0,0,0,.28-.12c.46-.37.93-.8,1.49-1.35s1-1,1.34-1.47a.58.58,0,0,0,.12-.28.65.65,0,0,0,0-.31L40.06,35a.79.79,0,0,1-.07-.4.82.82,0,0,1,.13-.38,19.6,19.6,0,0,0,2.77-6.68.81.81,0,0,1,.51-.6l2.82-1.13a.53.53,0,0,0,.24-.18.5.5,0,0,0,.12-.28c.06-.66.09-1.33.09-2a18.74,18.74,0,0,0-.09-2ZM23.33,40.83A17.51,17.51,0,1,1,35.7,35.7,17.44,17.44,0,0,1,23.33,40.83Z" />
 <path d="M29.17,20a4.18,4.18,0,0,0,4.16,4.17,2.5,2.5,0,0,1,2.31,1.54,2.54,2.54,0,0,1,.15,1.44A2.51,2.51,0,0,1,32.38,29a2.46,2.46,0,0,1-1.12-.92,2.5,2.5,0,0,1-.43-1.39.81.81,0,0,0-.24-.59.82.82,0,0,0-1.18,0,.85.85,0,0,0-.24.59,4.13,4.13,0,0,0,.7,2.31,4.14,4.14,0,0,0,4.28,1.77,4.08,4.08,0,0,0,2.13-1.14,4.16,4.16,0,0,0-3-7.11A2.52,2.52,0,0,1,31,21a2.66,2.66,0,0,1-.14-1.45,2.55,2.55,0,0,1,.69-1.28,2.43,2.43,0,0,1,1.28-.68,2.49,2.49,0,0,1,3,2.45.83.83,0,0,0,.25.59.81.81,0,0,0,.59.24.82.82,0,0,0,.59-.24A.87.87,0,0,0,37.5,20a4.17,4.17,0,1,0-8.33,0Z" />
 <path d="M26.53,15.87a1.25,1.25,0,0,0-.83.08,1.3,1.3,0,0,0-.6.58L22.92,20.9l-2.19-4.37a1.23,1.23,0,0,0-.59-.58,1.25,1.25,0,0,0-.83-.08,1.18,1.18,0,0,0-.7.45,1.24,1.24,0,0,0-.28.78V30a.83.83,0,0,0,.25.59.81.81,0,0,0,.59.24.82.82,0,0,0,.59-.24A.87.87,0,0,0,20,30V18.8l1.78,3.56a1.38,1.38,0,0,0,.47.52,1.32,1.32,0,0,0,1.33,0,1.38,1.38,0,0,0,.47-.52l1.78-3.56V30a.83.83,0,0,0,.25.59.81.81,0,0,0,.59.24.82.82,0,0,0,.59-.24A.87.87,0,0,0,27.5,30V17.1a1.25,1.25,0,0,0-1-1.23Z" />
 <path d="M13.33,17.5h2.5a.84.84,0,0,0,.84-.83.82.82,0,0,0-.25-.59.8.8,0,0,0-.59-.25h-2.5A4.17,4.17,0,0,0,9.17,20v6.67a4.17,4.17,0,0,0,4.16,4.16h2.5a.79.79,0,0,0,.59-.24.82.82,0,0,0,0-1.18.79.79,0,0,0-.59-.24h-2.5a2.53,2.53,0,0,1-2.5-2.5V20a2.52,2.52,0,0,1,.74-1.77A2.48,2.48,0,0,1,13.33,17.5Z" />
</svg>