<svg xmlns="http://www.w3.org/2000/svg" viewBox="0 0 46 46" fill="currentcolor">
 <path d="M46,3.43A3.59,3.59,0,0,0,42.57.05,35.56,35.56,0,0,0,24.76,3.62a35,35,0,0,0-10.2,8.46l-.11.13-6.73.52A3.56,3.56,0,0,0,5,14.33l-4.6,7a2.43,2.43,0,0,0-.2,2.35,2.45,2.45,0,0,0,1.88,1.44L7.76,26l-.06.33a3.6,3.6,0,0,0,1,3.11l7.9,7.9a3.57,3.57,0,0,0,2.53,1.05,3.77,3.77,0,0,0,.58,0l.33-.06.88,5.67a2.45,2.45,0,0,0,1.44,1.88,2.49,2.49,0,0,0,1,.21,2.46,2.46,0,0,0,1.35-.41l7-4.6a3.56,3.56,0,0,0,1.6-2.71l.52-6.73.13-.11a34.93,34.93,0,0,0,8.46-10.21A35.5,35.5,0,0,0,46,3.43ZM30.19,38.75l-6.65,4.39-.86-5.53a30.41,30.41,0,0,0,8.24-3.92l-.34,4.39A.89.89,0,0,1,30.19,38.75ZM18.52,35.39l-7.91-7.91a.89.89,0,0,1-.25-.76,23,23,0,0,1,1.06-4L23.28,34.58a23.81,23.81,0,0,1-4,1.06A.89.89,0,0,1,18.52,35.39Zm-10.6-20,4.39-.34a30.11,30.11,0,0,0-3.92,8.24l-5.53-.86,4.39-6.65A.89.89,0,0,1,7.92,15.42Zm24.27,14A30.69,30.69,0,0,1,26,33.45L12.55,20a30.82,30.82,0,0,1,4.08-6.23A32.1,32.1,0,0,1,26,6,32.81,32.81,0,0,1,42.42,2.75a.87.87,0,0,1,.83.83A32.81,32.81,0,0,1,40,20,32.1,32.1,0,0,1,32.19,29.37Z" transform="translate(0 0)" />
 <path d="M31.51,21.22a6.74,6.74,0,1,0-4.76-2A6.67,6.67,0,0,0,31.51,21.22Zm-2.86-9.59a4,4,0,0,1,5.72,5.72,4,4,0,0,1-5.72-5.72Z" transform="translate(0 0)" />
 <path d="M1.37,37.91a1.34,1.34,0,0,0,1-.4l4.4-4.4a1.35,1.35,0,1,0-1.91-1.9l-4.4,4.4a1.35,1.35,0,0,0,0,1.9A1.32,1.32,0,0,0,1.37,37.91Z" transform="translate(0 0)" />
 <path d="M10.76,35.24a1.35,1.35,0,0,0-1.91,0L.39,43.7a1.36,1.36,0,0,0,0,1.91,1.37,1.37,0,0,0,1,.39,1.35,1.35,0,0,0,.95-.39l8.46-8.46A1.35,1.35,0,0,0,10.76,35.24Z" transform="translate(0 0)" />
 <path d="M12.89,39.27l-4.4,4.4a1.35,1.35,0,0,0,0,1.91,1.33,1.33,0,0,0,.95.39,1.35,1.35,0,0,0,1-.39l4.4-4.4a1.35,1.35,0,1,0-1.9-1.91Z" transform="translate(0 0)" />
</svg>