<svg xmlns="http://www.w3.org/2000/svg" viewBox="0 0 39.72 41">
	<path fill="currentcolor" d="M36.69,15.53A7.85,7.85,0,0,0,29.16,5.6a7,7,0,0,0-.92.06,9.12,9.12,0,0,0-3-3.88A9,9,0,0,0,11.48,5.65c-.3,0-.61-.05-.92-.05A7.82,7.82,0,0,0,3,15.53a6.48,6.48,0,0,0,3.44,12H7.7v2.6a1.7,1.7,0,0,0,1.7,1.7h.31a10.52,10.52,0,0,0,.89,2.14l-.22.22a1.7,1.7,0,0,0,0,2.4l1.78,1.78a1.71,1.71,0,0,0,2.4,0l.22-.23a11.11,11.11,0,0,0,2.14.89v.31a1.7,1.7,0,0,0,1.7,1.7h2.5a1.7,1.7,0,0,0,1.7-1.7V39A11.11,11.11,0,0,0,25,38.1l.22.23a1.7,1.7,0,0,0,2.4,0l1.78-1.78a1.71,1.71,0,0,0,0-2.4l-.22-.22A11.11,11.11,0,0,0,30,31.79h.31a1.7,1.7,0,0,0,1.7-1.7v-2.6h1.22a6.48,6.48,0,0,0,3.45-12ZM30.42,30.09a.11.11,0,0,1-.1.1h-.93a.81.81,0,0,0-.79.62,8.81,8.81,0,0,1-1.16,2.82.79.79,0,0,0,.11,1l.66.66a.1.1,0,0,1,0,.14l-1.77,1.77a.1.1,0,0,1-.14,0l-.66-.66a.8.8,0,0,0-1-.11,8.9,8.9,0,0,1-2.82,1.16.81.81,0,0,0-.62.79v.93a.11.11,0,0,1-.1.1h-2.5a.1.1,0,0,1-.1-.1v-.93a.81.81,0,0,0-.63-.79,8.85,8.85,0,0,1-2.81-1.16.8.8,0,0,0-1,.11l-.67.66a.09.09,0,0,1-.13,0l-1.77-1.77a.08.08,0,0,1,0-.07.09.09,0,0,1,0-.07l.66-.66a.79.79,0,0,0,.11-1,9.06,9.06,0,0,1-1.17-2.82.79.79,0,0,0-.78-.62H9.4a.1.1,0,0,1-.1-.1v-2.6H13a7.53,7.53,0,0,0-.13,1.35,7,7,0,0,0,13.92,0,7.53,7.53,0,0,0-.13-1.35h3.73v2.6Zm2.82-4.2H23.45a.8.8,0,1,0,0,1.6H25a5.11,5.11,0,0,1,.18,1.35,5.36,5.36,0,1,1-10.72,0,5.55,5.55,0,0,1,.17-1.35h1.59a.8.8,0,1,0,0-1.6H6.47A4.88,4.88,0,0,1,1.6,21a4.83,4.83,0,0,1,2.75-4.38.82.82,0,0,0,.4-1,6.08,6.08,0,0,1-.4-2.2A6.22,6.22,0,0,1,10.56,7.2a6,6,0,0,1,1.28.14.8.8,0,0,0,.93-.55,7.43,7.43,0,0,1,14.17,0,.82.82,0,0,0,.94.55,6,6,0,0,1,1.28-.14,6.22,6.22,0,0,1,6.21,6.22,6.08,6.08,0,0,1-.4,2.2.81.81,0,0,0,.4,1,4.87,4.87,0,0,1-2.13,9.26Z" />
	<path fill="currentcolor" d="M28.32,11.36a.8.8,0,0,0-.8.8v7.9a.8.8,0,1,0,1.6,0v-7.9A.8.8,0,0,0,28.32,11.36Z" />
	<path fill="currentcolor" d="M21.94,11.36H19.7a.81.81,0,0,0-.8.8v8.05a.8.8,0,0,0,1.6,0v-2.7h1.44a3.07,3.07,0,1,0,0-6.14Zm0,4.54H20.51V14.43c0-.28,0-.93,0-1.47h1.44a1.47,1.47,0,1,1,0,2.94Z" />
	<path fill="currentcolor" d="M13.39,12h0a1,1,0,0,0-.91-.62,1,1,0,0,0-.92.62h0l-3,7.93a.8.8,0,1,0,1.49.57L10.59,19h3.75l.55,1.46a.8.8,0,0,0,.75.52.92.92,0,0,0,.28-.05.82.82,0,0,0,.47-1ZM11.2,17.43l1.27-3.34,1.26,3.34Z" />
	<path fill="currentcolor" d="M19.86,25.89a.8.8,0,1,0,0,1.6h0a.8.8,0,0,0,0-1.6Z" />
</svg>
