<svg xmlns="http://www.w3.org/2000/svg" viewBox="0 0 38.44 38.44">
	<path fill="currentcolor" d="M7.05,0A1.94,1.94,0,0,0,5.12,1.92v20.5a.65.65,0,0,0,1.29,0v-16H32v16a.64.64,0,1,0,1.28,0V1.92A1.93,1.93,0,0,0,31.39,0Zm0,1.28H31.39a.62.62,0,0,1,.64.64V5.13H6.41V1.92A.62.62,0,0,1,7.05,1.28ZM8.33,2.56A.64.64,0,1,0,9,3.2.64.64,0,0,0,8.33,2.56Zm2.56,0a.64.64,0,0,0-.64.64.64.64,0,0,0,1.28,0A.64.64,0,0,0,10.89,2.56Zm2.56,0a.64.64,0,0,0-.64.64.64.64,0,1,0,.64-.64Zm8.94,0a.65.65,0,0,0,0,1.29h7.69a.65.65,0,0,0,0-1.29ZM1.92,3.85A1.92,1.92,0,0,0,0,5.76V28.83a1.93,1.93,0,0,0,1.92,1.92h34.6a1.93,1.93,0,0,0,1.92-1.92V5.76a1.93,1.93,0,0,0-1.92-1.92H35.24a.65.65,0,1,0,0,1.29h1.28a.62.62,0,0,1,.63.63V24.35H1.28V5.76a.62.62,0,0,1,.64-.63H3.2a.65.65,0,1,0,0-1.29ZM21.15,9a.65.65,0,0,0-.62.45L16.69,20.94a.64.64,0,1,0,1.21.4L21.75,9.81A.64.64,0,0,0,21.15,9Zm2.78,3.7,3.26,2.72-3.26,2.71a.64.64,0,1,0,.83,1l3.84-3.2a.66.66,0,0,0,0-1l-3.84-3.2a.63.63,0,0,0-.45-.15.64.64,0,0,0-.38,1.13Zm-9.85-1.13a.59.59,0,0,0-.4.15l-3.84,3.2a.64.64,0,0,0,0,1l3.84,3.2a.64.64,0,1,0,.82-1l-3.25-2.71,3.25-2.72a.63.63,0,0,0-.42-1.13ZM1.28,25.63H37.15v3.2a.62.62,0,0,1-.63.64H1.92a.63.63,0,0,1-.64-.64Zm19.26,1.28H17.91a.64.64,0,0,0,0,1.28H20.5a.64.64,0,1,0,0-1.28ZM15.63,32a.64.64,0,0,0-.6.38,6.61,6.61,0,0,1-1.82,2.23h-1a1.94,1.94,0,0,0-1.92,1.93v1.27a.65.65,0,0,0,.64.65H27.55a.65.65,0,0,0,.64-.65V36.52a1.94,1.94,0,0,0-1.93-1.93h-1a6.61,6.61,0,0,1-1.82-2.23.64.64,0,1,0-1.16.54,7.18,7.18,0,0,0,1.14,1.69H15a7,7,0,0,0,1.15-1.69A.64.64,0,0,0,15.63,32Zm-3.46,3.9H26.26a.63.63,0,0,1,.65.64v.64H11.53v-.64A.63.63,0,0,1,12.17,35.88Z" />
</svg>
