<svg xmlns="http://www.w3.org/2000/svg" viewBox="0 0 17.67 17.67">
	<path fill="currentcolor" d="M8.83,0A8.74,8.74,0,0,0,5.08.85a.52.52,0,0,0-.2.09h0a8.81,8.81,0,1,0,4-.95Zm7.84,8.83c0,.1,0,.2,0,.3l-2.5-.23A11.58,11.58,0,0,0,11,9.05c-.23-.55-.48-1.09-.76-1.61a11.68,11.68,0,0,0,4.2-4A7.81,7.81,0,0,1,16.67,8.83Zm-3-6.11A10.61,10.61,0,0,1,9.78,6.57,20.11,20.11,0,0,0,8.23,4.31L6,1.54a7.77,7.77,0,0,1,7.72,1.18ZM5.06,2l2.39,3A18.35,18.35,0,0,1,8.89,7,10.55,10.55,0,0,1,3.6,7.9L1.1,7.67A7.85,7.85,0,0,1,5.06,2ZM1,8.83c0-.05,0-.11,0-.16l2.5.23c.35,0,.7,0,1,0A11.62,11.62,0,0,0,9.37,7.88c.25.45.46.92.67,1.39a11.67,11.67,0,0,0-6.8,5A7.83,7.83,0,0,1,1,8.83ZM4,15a10.72,10.72,0,0,1,6.43-4.77,17.67,17.67,0,0,1,.63,2L12,16a7.77,7.77,0,0,1-8-1Zm8.88.55L12,12a18.73,18.73,0,0,0-.61-2,10.59,10.59,0,0,1,2.64-.1l2.49.23A7.85,7.85,0,0,1,12.88,15.53Z" />
</svg>
