<svg xmlns="http://www.w3.org/2000/svg" viewBox="0 0 17.67 17.67">
 <path fill="currentcolor" d="M11.33,0h-5C1.89,0,0,1.89,0,6.33v5c0,4.44,1.89,6.34,6.33,6.34h5c4.44,0,6.34-1.9,6.34-6.34v-5C17.67,1.89,15.77,0,11.33,0ZM8.5,16.67v-6H6.83V9.58H8.5V6.33a2,2,0,0,1,2-2h2v1.5H10.75a.72.72,0,0,0-.75.75V9.5h2.37l-.23,1.08H10v6.09Zm8.17-5.34c0,3.89-1.45,5.34-5.34,5.34H11V11.58h1.33a.76.76,0,0,0,.75-.59l.33-1.55V9.33a.78.78,0,0,0-.75-.83H11V6.83h1.75a.72.72,0,0,0,.75-.75v-2a.72.72,0,0,0-.75-.75H10.5a3,3,0,0,0-3,3V8.58H6.58a.72.72,0,0,0-.75.75v1.59a.72.72,0,0,0,.75.75H7.5v5H6.33C2.45,16.67,1,15.22,1,11.33v-5C1,2.45,2.45,1,6.33,1h5c3.89,0,5.34,1.45,5.34,5.33Z" />
</svg>