<svg xmlns="http://www.w3.org/2000/svg" viewBox="0 0 12.08 17.58">
 <path fill="currentcolor" d="M10.44,6a3.26,3.26,0,0,0,1.64-2.79A3.29,3.29,0,0,0,8.83,0H3.33A3.3,3.3,0,0,0,0,3.25,3.27,3.27,0,0,0,1.68,6.06,3.3,3.3,0,0,0,.08,8.83a3.27,3.27,0,0,0,1.57,2.75,3.23,3.23,0,0,0,1.68,6,3.28,3.28,0,0,0,3.25-3.25V11.15A3.23,3.23,0,1,0,10.44,6ZM6.58,6.5h0l0,0Zm0-5.5H8.83a2.28,2.28,0,0,1,2.25,2.25A2.28,2.28,0,0,1,8.83,5.5H6.58ZM1,3.25A2.3,2.3,0,0,1,3.33,1H5.58V5.5H3.25A2.28,2.28,0,0,1,1,3.25Zm.08,5.58A2.28,2.28,0,0,1,3.33,6.58H5.58v4.5H3.33A2.28,2.28,0,0,1,1.08,8.83Zm4.5,5.5a2.28,2.28,0,0,1-2.25,2.25,2.25,2.25,0,0,1,0-4.5H5.58Zm3.25-3.25a2.25,2.25,0,1,1,2.25-2.25A2.28,2.28,0,0,1,8.83,11.08Z" />
</svg>