<svg xmlns="http://www.w3.org/2000/svg" viewBox="0 0 17 17" fill="currentcolor">
	<path
		d="M12.34,0H4.66A4.66,4.66,0,0,0,0,4.66v7.68A4.66,4.66,0,0,0,4.66,17h7.68A4.66,4.66,0,0,0,17,12.34V4.66A4.66,4.66,0,0,0,12.34,0ZM16,12.34A3.66,3.66,0,0,1,12.34,16H4.66A3.66,3.66,0,0,1,1,12.34V4.66A3.66,3.66,0,0,1,4.66,1h7.68A3.66,3.66,0,0,1,16,4.66Z" />
	<path
		d="M8.5,3.84A4.66,4.66,0,1,0,13.16,8.5,4.66,4.66,0,0,0,8.5,3.84Zm0,8.32A3.66,3.66,0,1,1,12.16,8.5,3.66,3.66,0,0,1,8.5,12.16Z" />
	<path
		d="M13.44,2.14a1.42,1.42,0,1,0,1.42,1.42A1.43,1.43,0,0,0,13.44,2.14Zm0,1.83a.41.41,0,1,1,.41-.41A.41.41,0,0,1,13.44,4Z" />
</svg>