<svg xmlns="http://www.w3.org/2000/svg" viewBox="0 0 19.69 19.2" fill="currentcolor">
	<path d="M13.38,5.66C12.69,2.45,11.21.41,9.84.41S7,2.45,6.31,5.66Z" />
	<path
		d="M5.91,9.6a19.11,19.11,0,0,0,.17,2.62h7.53a20.83,20.83,0,0,0,.17-2.62A21,21,0,0,0,13.61,7H6.08A19.25,19.25,0,0,0,5.91,9.6Z" />
	<path d="M6.31,13.54c.69,3.21,2.17,5.25,3.53,5.25s2.85-2,3.54-5.25Z" />
	<path d="M14.72,5.66h4.14A9.88,9.88,0,0,0,16.1,2,9.75,9.75,0,0,0,12,0,10.29,10.29,0,0,1,14.72,5.66Z" />
	<path d="M19.33,7h-4.4a21,21,0,0,1,.16,2.63,20.82,20.82,0,0,1-.16,2.62h4.4a9.75,9.75,0,0,0,0-5.25Z" />
	<path d="M12,19.2a10,10,0,0,0,4.1-2,9.88,9.88,0,0,0,2.76-3.64H14.72A10.29,10.29,0,0,1,12,19.2Z" />
	<path d="M5,13.54H.83a9.88,9.88,0,0,0,2.76,3.64,10,10,0,0,0,4.1,2A10.3,10.3,0,0,1,5,13.54Z" />
	<path d="M7.69,0a9.75,9.75,0,0,0-4.1,2A9.88,9.88,0,0,0,.83,5.66H5A10.3,10.3,0,0,1,7.69,0Z" />
	<path d="M4.59,9.6A21,21,0,0,1,4.76,7H.36a9.75,9.75,0,0,0,0,5.25h4.4A20.83,20.83,0,0,1,4.59,9.6Z" />
</svg>