<svg xmlns="http://www.w3.org/2000/svg" viewBox="0 0 16 15.38" fill="currentcolor">
<path d="M3.28,4.92H.47A.47.47,0,0,0,0,5.4v9.51a.47.47,0,0,0,.47.47H3.28a.47.47,0,0,0,.47-.47V5.4A.47.47,0,0,0,3.28,4.92ZM2.8,14.43H1V5.87H2.8Z"/><path d="M14.84,6.45A4.18,4.18,0,0,0,11.5,4.92a4.07,4.07,0,0,0-1.95.46.47.47,0,0,0-.47-.46H6.28a.47.47,0,0,0-.48.48v9.51a.47.47,0,0,0,.48.47h2.8a.47.47,0,0,0,.47-.47V10a1.35,1.35,0,1,1,2.7,0v4.89a.47.47,0,0,0,.47.47h2.81a.47.47,0,0,0,.47-.47V10A5.62,5.62,0,0,0,14.84,6.45Zm.21,8H13.2V10a2.3,2.3,0,1,0-4.6,0v4.41H6.75V5.87H8.6v.47a.49.49,0,0,0,.3.44.48.48,0,0,0,.52-.11,2.8,2.8,0,0,1,2.08-.8C14,5.87,15.05,8,15.05,10v4.41Z"/><path d="M1.88,0A1.88,1.88,0,1,0,3.75,1.88,1.88,1.88,0,0,0,1.88,0Zm0,2.8a.93.93,0,1,1,.92-.92A.93.93,0,0,1,1.88,2.8Z"/>
</svg>
