<svg xmlns="http://www.w3.org/2000/svg" viewBox="0 0 11.99 16" fill="currentcolor">
	<path
		d="M6,0A6,6,0,0,0,0,6,1.47,1.47,0,0,0,1.47,7.47,1.47,1.47,0,0,0,3,6,3.05,3.05,0,1,1,6.4,9l.54-2.73a1.45,1.45,0,0,0-.22-1.11,1.47,1.47,0,0,0-.94-.63,1.36,1.36,0,0,0-.29,0A1.48,1.48,0,0,0,4.05,5.71l-1.7,8.53A1.48,1.48,0,0,0,3.51,16a1.43,1.43,0,0,0,.29,0,1.47,1.47,0,0,0,1.44-1.19L5.8,12H6A6,6,0,0,0,6,0ZM6,11.06H5.42a.47.47,0,0,0-.46.37l-.64,3.2a.53.53,0,0,1-.52.43H3.69a.54.54,0,0,1-.34-.23.52.52,0,0,1-.08-.4L5,5.89a.53.53,0,0,1,.52-.43H5.6a.54.54,0,0,1,.34.23A.52.52,0,0,1,6,6.1L5.36,9.42a.47.47,0,0,0,.46.56H6A4,4,0,1,0,2,6a.54.54,0,0,1-.54.53.55.55,0,0,1-.38-.15A.54.54,0,0,1,.94,6,5.06,5.06,0,1,1,6,11.06Z" />
</svg>