<svg xmlns="http://www.w3.org/2000/svg" viewBox="0 0 35.17 41">
	<path fill="currentcolor" d="M28.91,9.23a1.24,1.24,0,0,0-1.06-.61H7A1.25,1.25,0,0,0,6,9.23L4.49,11.81a.6.6,0,0,0,.22.82.61.61,0,0,0,.82-.22l1.14-2L11,18H2.33l1.84-3.18A.61.61,0,0,0,4,14a.59.59,0,0,0-.82.22L.9,18A1,1,0,0,0,1,19.15L16.7,36.71a1,1,0,0,0,.72.33h0a1,1,0,0,0,.73-.33L33.86,19.15A1,1,0,0,0,34,18ZM18.71,18H13.1l4.34-7.52L21.78,18h-.05a.6.6,0,1,0,0,1.2H22L17.43,34.74,12.86,19.15h5.85a.6.6,0,1,0,0-1.2Zm4.11-.6L18.48,9.83h8.69Zm.45,1.8h9l-13.38,15ZM32.55,18H23.87l4.34-7.52ZM7.71,9.83H16.4l-4.34,7.52Zm3.9,9.32,4.38,15-13.36-15Z" />
	<path fill="currentcolor" d="M32,34.79l-.09,0a4.84,4.84,0,0,1-1.05-.59.6.6,0,0,0-.7,1,6.42,6.42,0,0,0,.58.37,5.59,5.59,0,0,0-2.64,3.12,5.63,5.63,0,0,0-2.64-3.12,5.6,5.6,0,0,0,2.64-3.11l0,0a.6.6,0,0,0,.76.37.61.61,0,0,0,.37-.77l-.12-.4-.25-1a.81.81,0,0,0-1.57,0l-.25,1a4.59,4.59,0,0,1-2.77,3.1l-.09,0a.86.86,0,0,0-.38.71.84.84,0,0,0,.38.71l.09,0a4.59,4.59,0,0,1,2.77,3.1l.25,1a.81.81,0,0,0,1.57,0l.25-1a4.62,4.62,0,0,1,2.78-3.1l.09,0a.86.86,0,0,0,.37-.71A.87.87,0,0,0,32,34.79Z" />
	<path fill="currentcolor" d="M34.85,8.3l-.09-.05a2,2,0,0,1-1.23-1.36l-.13-.52h0a.71.71,0,0,0-.68-.54h0a.72.72,0,0,0-.69.54l-.12.52a2,2,0,0,1-1.23,1.36.19.19,0,0,0-.09.05.72.72,0,0,0,0,1.21.19.19,0,0,0,.09.05,2,2,0,0,1,1.23,1.36l.12.52a.72.72,0,0,0,.69.54h0a.71.71,0,0,0,.68-.54l.13-.52a2,2,0,0,1,1.23-1.36l.09-.05a.72.72,0,0,0,.32-.6A.74.74,0,0,0,34.85,8.3ZM32.72,9.77a3.07,3.07,0,0,0-.79-.86A3.25,3.25,0,0,0,32.72,8a3.1,3.1,0,0,0,.79.87A2.93,2.93,0,0,0,32.72,9.77Z" />
	<path fill="currentcolor" d="M2.35,7l.18.73a.75.75,0,0,0,.73.58A.77.77,0,0,0,4,7.7L4.17,7a3.16,3.16,0,0,1,1.9-2.13l.09,0a.78.78,0,0,0,.35-.65.77.77,0,0,0-.35-.65.19.19,0,0,0-.09-.05,3.16,3.16,0,0,1-1.9-2.13L4,.57A.77.77,0,0,0,3.26,0a.75.75,0,0,0-.73.57l-.18.74A3.2,3.2,0,0,1,.44,3.44l-.09.05A.77.77,0,0,0,0,4.14a.78.78,0,0,0,.35.65l.09,0A3.2,3.2,0,0,1,2.35,7Zm.91-4.63a4.15,4.15,0,0,0,1.58,1.8A4.18,4.18,0,0,0,3.26,5.93,4.27,4.27,0,0,0,1.67,4.14,4.23,4.23,0,0,0,3.26,2.34Z" />
</svg>
