<svg xmlns="http://www.w3.org/2000/svg" viewBox="0 0 31.49 41">
	<path fill="currentcolor" d="M26.53,27.2a15.74,15.74,0,0,0-7-26.74A.8.8,0,0,0,19.15,2a14.14,14.14,0,1,1-6.82,0A.8.8,0,1,0,12,.46,15.82,15.82,0,0,0,3.4,6,15.58,15.58,0,0,0,0,15.74,15.75,15.75,0,0,0,5,27.2l-4.19,8a.81.81,0,0,0,.34,1.08l0,0a.77.77,0,0,0,.58.06L7.52,34.8l2,5.67a.8.8,0,0,0,.7.53h.06a.8.8,0,0,0,.71-.43l4.73-9.06,4.74,9.06a.79.79,0,0,0,.71.43h0a.79.79,0,0,0,.7-.53l2-5.67,5.81,1.57a.78.78,0,0,0,.58-.06l0,0a.81.81,0,0,0,.34-1.08Zm-16.09,11L8.78,33.56a.81.81,0,0,0-1-.5L3,34.36l3.19-6.1A15.69,15.69,0,0,0,14,31.39Zm13.23-5.15a.8.8,0,0,0-1,.5l-1.66,4.65-3.56-6.82a15.62,15.62,0,0,0,7.79-3.13l3.19,6.1Z" />
	<path fill="currentcolor" d="M15.74,1.6a.8.8,0,0,0,.8-.8.8.8,0,1,0-.8.8Z" />
	<path fill="currentcolor" d="M4,15.74A11.74,11.74,0,1,0,15.74,4,11.75,11.75,0,0,0,4,15.74Zm21.88,0A10.14,10.14,0,1,1,15.74,5.61,10.15,10.15,0,0,1,25.88,15.74Z" />
	<path fill="currentcolor" d="M15,11.43l-1.65,3.42L9.67,14a.78.78,0,0,0-.78.26.79.79,0,0,0-.14.81l1.49,3.82h-.1a.8.8,0,0,0,0,1.6H21.35a.8.8,0,1,0,0-1.6h-.11l1.49-3.82A.79.79,0,0,0,21.81,14l-3.7.84-1.65-3.42a.8.8,0,0,0-.72-.45A.82.82,0,0,0,15,11.43ZM17,16.12a.81.81,0,0,0,.9.43l2.84-.65-1.16,3H12l-1.17-3,2.85.65a.82.82,0,0,0,.9-.43l1.2-2.5Z" />
</svg>
