<svg xmlns="http://www.w3.org/2000/svg" viewBox="0 0 38.41 38.43">
	<path fill="currentcolor" d="M15.36,34.71V27.54a1.9,1.9,0,0,0-.56-1.35,1.93,1.93,0,0,0-1.36-.57H3.19a1.93,1.93,0,0,0-1.36.57,1.9,1.9,0,0,0-.56,1.35v7.17a1.9,1.9,0,0,0-1,.84A1.93,1.93,0,0,0,.68,38a1.9,1.9,0,0,0,1.23.45H14.72A1.9,1.9,0,0,0,16,38a2,2,0,0,0,.65-1.14,1.91,1.91,0,0,0-1.24-2.13ZM2.55,27.54a.65.65,0,0,1,.64-.64H13.44a.65.65,0,0,1,.64.64v7.05H9.59a.65.65,0,0,0-.64.64H7.67a.6.6,0,0,0-.19-.45A.64.64,0,0,0,7,34.59H2.55Zm12.17,9.61H1.91A.65.65,0,0,1,1.45,37a.65.65,0,0,1-.18-.46.63.63,0,0,1,.18-.45.66.66,0,0,1,.46-.19H6.39a.66.66,0,0,0,.19.46.63.63,0,0,0,.45.18H9.59a.65.65,0,0,0,.46-.18.66.66,0,0,0,.19-.46h4.48a.65.65,0,0,1,.64.64.66.66,0,0,1-.19.46A.63.63,0,0,1,14.72,37.15Z" />
	<path fill="currentcolor" d="M37.14,34.71V27.54a1.9,1.9,0,0,0-.56-1.35,1.93,1.93,0,0,0-1.36-.57H25a1.93,1.93,0,0,0-1.36.57,1.9,1.9,0,0,0-.56,1.35v7.17a1.9,1.9,0,0,0-1,.84,1.87,1.87,0,0,0-.23,1.29A2,2,0,0,0,22.46,38a1.9,1.9,0,0,0,1.23.45H36.5A1.9,1.9,0,0,0,37.73,38a2,2,0,0,0,.65-1.14,1.93,1.93,0,0,0-.23-1.29A1.9,1.9,0,0,0,37.14,34.71ZM24.33,27.54A.65.65,0,0,1,25,26.9H35.22a.65.65,0,0,1,.64.64v7.05H31.38a.66.66,0,0,0-.46.19.63.63,0,0,0-.18.45H29.45a.63.63,0,0,0-.18-.45.66.66,0,0,0-.46-.19H24.33ZM36.5,37.15H23.69a.63.63,0,0,1-.45-.18.66.66,0,0,1-.19-.46.65.65,0,0,1,.64-.64h4.48a.66.66,0,0,0,.19.46.63.63,0,0,0,.45.18h2.57a.63.63,0,0,0,.45-.18.66.66,0,0,0,.19-.46H36.5a.65.65,0,0,1,.64.64A.66.66,0,0,1,37,37,.63.63,0,0,1,36.5,37.15Z" />
	<path fill="currentcolor" d="M19.2,14.73a2.57,2.57,0,0,0-1.42.43,2.63,2.63,0,0,0-.94,1.15,2.51,2.51,0,0,0-.15,1.48,2.58,2.58,0,0,0,.7,1.32,2.66,2.66,0,0,0,1.31.7,2.5,2.5,0,0,0,1.48-.15,2.58,2.58,0,0,0,1.59-2.37,2.56,2.56,0,0,0-2.57-2.56Zm0,3.85a1.29,1.29,0,0,1-.71-.22,1.28,1.28,0,0,1-.47-.58A1.25,1.25,0,0,1,18,17a1.28,1.28,0,0,1,1-1,1.25,1.25,0,0,1,.74.07,1.28,1.28,0,0,1,.58.47,1.29,1.29,0,0,1-1.07,2Z" />
	<path fill="currentcolor" d="M30.48,10.27a2.27,2.27,0,0,0,.26-1,5.45,5.45,0,0,0-9.19-4A7,7,0,0,0,7.67,7a6.89,6.89,0,0,0,.78,3.21H8.31a3.84,3.84,0,0,0,0,7.68h5.13v.65a.68.68,0,0,0,.13.39.72.72,0,0,0,.36.23l.42.11-.23.37a.66.66,0,0,0-.08.41.64.64,0,0,0,.18.38L16,22.28a.68.68,0,0,0,.38.18.57.57,0,0,0,.4-.09l.38-.23.11.43a.66.66,0,0,0,.23.35.62.62,0,0,0,.39.14h2.57a.62.62,0,0,0,.39-.14.66.66,0,0,0,.23-.35l.11-.43.37.23a.61.61,0,0,0,.41.09.65.65,0,0,0,.37-.18l1.82-1.81a.71.71,0,0,0,.18-.38.61.61,0,0,0-.09-.41l-.23-.37.43-.11a.7.7,0,0,0,.35-.23.62.62,0,0,0,.14-.39v-.65h5.12a3.83,3.83,0,0,0,3.84-3.65,3.82,3.82,0,0,0-3.45-4Zm-6.79,7.81-.78.19a.59.59,0,0,0-.27.14.61.61,0,0,0-.17.24.71.71,0,0,0,0,.29.56.56,0,0,0,.1.28l.41.69L21.82,21l-.69-.42a.66.66,0,0,0-.28-.09.71.71,0,0,0-.29,0,.61.61,0,0,0-.24.17.59.59,0,0,0-.14.27l-.19.78H18.42L18.23,21a.59.59,0,0,0-.14-.27.7.7,0,0,0-.24-.17.71.71,0,0,0-.29,0,.66.66,0,0,0-.28.09l-.7.42-1.1-1.11.41-.69a.55.55,0,0,0,.09-.28.57.57,0,0,0,0-.29.55.55,0,0,0-.18-.24.51.51,0,0,0-.26-.14l-.78-.19V16.51l.78-.19a.51.51,0,0,0,.26-.14.61.61,0,0,0,.18-.24.57.57,0,0,0,0-.29.55.55,0,0,0-.09-.28l-.41-.7,1.1-1.1.7.41a.55.55,0,0,0,.28.09.57.57,0,0,0,.29,0,.61.61,0,0,0,.24-.18.51.51,0,0,0,.14-.26l.19-.78H20l.19.78a.51.51,0,0,0,.14.26.55.55,0,0,0,.24.18.57.57,0,0,0,.29,0,.55.55,0,0,0,.28-.09l.69-.41,1.11,1.1-.41.7a.56.56,0,0,0-.1.28.71.71,0,0,0,0,.29.7.7,0,0,0,.17.24.59.59,0,0,0,.27.14l.78.19Zm6.4-1.43H25V16a.62.62,0,0,0-.14-.39.7.7,0,0,0-.35-.23l-.43-.11.23-.38a.57.57,0,0,0,.09-.4.68.68,0,0,0-.18-.38l-1.82-1.81a.65.65,0,0,0-.37-.18.66.66,0,0,0-.41.08l-.37.23L21.11,12a.72.72,0,0,0-.23-.36.68.68,0,0,0-.39-.13H17.92a.68.68,0,0,0-.39.13.72.72,0,0,0-.23.36l-.11.42-.38-.23a.62.62,0,0,0-.4-.08.68.68,0,0,0-.38.18l-1.81,1.81a.66.66,0,0,0-.1.78l.23.38-.42.11a.72.72,0,0,0-.36.23.68.68,0,0,0-.13.39v.64H8.31a2.56,2.56,0,0,1,0-5.12H9.6a.59.59,0,0,0,.34-.1.58.58,0,0,0,.23-.26.57.57,0,0,0,.07-.34.68.68,0,0,0-.13-.33A5.84,5.84,0,0,1,9,8a5.78,5.78,0,0,1,.17-2.68A5.68,5.68,0,0,1,10.57,3a5.76,5.76,0,0,1,4.94-1.71,5.76,5.76,0,0,1,5,5.59.62.62,0,0,0,.14.39.57.57,0,0,0,.34.22.71.71,0,0,0,.41,0,.63.63,0,0,0,.31-.27,4.16,4.16,0,0,1,7.77,2.06,1.94,1.94,0,0,1-.3.75,6.09,6.09,0,0,0-.3.63.77.77,0,0,0,0,.3.61.61,0,0,0,.11.29.74.74,0,0,0,.23.2.73.73,0,0,0,.29.07h.64a2.56,2.56,0,1,1,0,5.12Z" />
	<path fill="currentcolor" d="M26.89,19.22H25.61V20.5h1.28Z" />
	<path fill="currentcolor" d="M31.38,24.34v-3.2a1.93,1.93,0,0,0-1.93-1.92H28.17V20.5h1.28a.65.65,0,0,1,.46.18.67.67,0,0,1,.18.46v3.2Z" />
	<path fill="currentcolor" d="M12.8,19.22H11.52V20.5H12.8Z" />
	<path fill="currentcolor" d="M9,20.5h1.29V19.22H9A1.91,1.91,0,0,0,7,21.14v3.2H8.31v-3.2a.68.68,0,0,1,.19-.46A.63.63,0,0,1,9,20.5Z" />
</svg>
