<svg xmlns="http://www.w3.org/2000/svg" viewBox="0 0 37.58 37.58">
	<path fill="currentcolor" d="M1.71,18.79A17.08,17.08,0,0,1,29.37,5.38h-2.6a.84.84,0,0,0-.84.86.85.85,0,0,0,.24.6.86.86,0,0,0,.6.25H31.6a.85.85,0,0,0,.86-.85V1.4a1,1,0,0,0-.06-.33,1.07,1.07,0,0,0-.19-.28.75.75,0,0,0-.28-.18A.72.72,0,0,0,31.6.54a.78.78,0,0,0-.33.07A.8.8,0,0,0,31,.79a.87.87,0,0,0-.19.28,1,1,0,0,0-.06.33V4.3A18.79,18.79,0,0,0,5.5,32.08a1.07,1.07,0,0,0,.28.19.93.93,0,0,0,.33.07.78.78,0,0,0,.33-.07.78.78,0,0,0,.46-.46A.78.78,0,0,0,7,31.48a.88.88,0,0,0-.07-.33.77.77,0,0,0-.19-.28,17,17,0,0,1-5-12.08Z" />
	<path fill="currentcolor" d="M11.33,34.16a15.19,15.19,0,0,1-1.43-.78.92.92,0,0,0-.65-.1.82.82,0,0,0-.52.39.8.8,0,0,0-.1.64.86.86,0,0,0,.38.53c.51.31,1,.6,1.57.86a.72.72,0,0,0,.32.08.91.91,0,0,0,.33,0,.92.92,0,0,0,.29-.17.79.79,0,0,0,.2-.27.9.9,0,0,0,.09-.32,1,1,0,0,0-.05-.33,1,1,0,0,0-.17-.29.86.86,0,0,0-.26-.2Z" />
	<path fill="currentcolor" d="M34.17,11.34a1.05,1.05,0,0,0,.2.27.92.92,0,0,0,.29.17.91.91,0,0,0,.33,0,.72.72,0,0,0,.32-.08.84.84,0,0,0,.44-.49.93.93,0,0,0,0-.33.89.89,0,0,0-.08-.32c-.26-.53-.55-1.06-.86-1.57a.88.88,0,0,0-.22-.25,1.09,1.09,0,0,0-.31-.14.84.84,0,0,0-.64.1.91.91,0,0,0-.39.53.92.92,0,0,0,.1.65C33.67,10.38,33.94,10.86,34.17,11.34Z" />
	<path fill="currentcolor" d="M20.82,35.76c-.54.06-1.09.1-1.62.11a.82.82,0,0,0-.59.27.87.87,0,0,0-.24.59.85.85,0,0,0,.85.85h0c.59,0,1.19-.06,1.78-.13a.87.87,0,0,0,.57-.32.89.89,0,0,0,.18-.63.91.91,0,0,0-.32-.57.9.9,0,0,0-.63-.18Z" />
	<path fill="currentcolor" d="M16,35.64c-.53-.09-1.07-.21-1.59-.35a.92.92,0,0,0-.65.09.84.84,0,0,0-.4.52A.87.87,0,0,0,13.93,37a17,17,0,0,0,1.75.37.74.74,0,0,0,.33,0,.81.81,0,0,0,.3-.13.92.92,0,0,0,.23-.25.84.84,0,0,0,.12-.31.92.92,0,0,0,0-.33.83.83,0,0,0-.14-.3.75.75,0,0,0-.24-.23.91.91,0,0,0-.31-.12Z" />
	<path fill="currentcolor" d="M36.74,18.38a.84.84,0,0,0-.61.24.83.83,0,0,0-.26.59,14.53,14.53,0,0,1-.12,1.62.87.87,0,0,0,.18.63.81.81,0,0,0,.57.32h.1a.87.87,0,0,0,.57-.22.89.89,0,0,0,.28-.53c.07-.59.11-1.19.13-1.78a.88.88,0,0,0-.06-.33.75.75,0,0,0-.18-.28.86.86,0,0,0-.27-.2A.88.88,0,0,0,36.74,18.38Z" />
	<path fill="currentcolor" d="M34.12,28.15a.86.86,0,0,0-.64-.13.81.81,0,0,0-.54.36c-.31.44-.64.88-1,1.3a.87.87,0,0,0-.2.62.9.9,0,0,0,.09.33.92.92,0,0,0,.22.26.9.9,0,0,0,.29.16,1,1,0,0,0,.34,0A.92.92,0,0,0,33,31a.85.85,0,0,0,.25-.21c.38-.46.75-.94,1.08-1.43a.93.93,0,0,0,.13-.31.91.91,0,0,0,0-.33.84.84,0,0,0-.12-.31A.78.78,0,0,0,34.12,28.15Z" />
	<path fill="currentcolor" d="M35.3,14.38c.14.53.25,1.06.34,1.59a.85.85,0,0,0,.29.51.82.82,0,0,0,.55.21h.14a1,1,0,0,0,.32-.12,1,1,0,0,0,.24-.23,1,1,0,0,0,.14-.3,1,1,0,0,0,0-.34c-.1-.58-.23-1.17-.38-1.74a.84.84,0,0,0-.4-.52.8.8,0,0,0-.64-.09.84.84,0,0,0-.52.4.8.8,0,0,0-.09.64Z" />
	<path fill="currentcolor" d="M29.66,32a15.25,15.25,0,0,1-1.3,1,.84.84,0,0,0-.23.23.93.93,0,0,0-.13.31,1,1,0,0,0,0,.34,1,1,0,0,0,.13.3.91.91,0,0,0,.24.24.84.84,0,0,0,.31.12.92.92,0,0,0,.33,0,.85.85,0,0,0,.31-.13c.49-.33,1-.69,1.43-1.07a.92.92,0,0,0,.31-.58.83.83,0,0,0-.2-.62.82.82,0,0,0-.57-.31A.89.89,0,0,0,29.66,32Z" />
	<path fill="currentcolor" d="M36.13,23.45a.82.82,0,0,0-.65.06.84.84,0,0,0-.42.5,14.73,14.73,0,0,1-.57,1.52.88.88,0,0,0-.07.33,1,1,0,0,0,.06.33.75.75,0,0,0,.18.28.8.8,0,0,0,.28.2.88.88,0,0,0,.33.06.77.77,0,0,0,.33-.06.87.87,0,0,0,.28-.19.75.75,0,0,0,.18-.28,16.82,16.82,0,0,0,.63-1.67.93.93,0,0,0,0-.33.67.67,0,0,0-.1-.32,1.05,1.05,0,0,0-.2-.27A1.08,1.08,0,0,0,36.13,23.45Z" />
	<path fill="currentcolor" d="M25.51,34.5c-.49.21-1,.4-1.52.57a.86.86,0,0,0-.5.42.9.9,0,0,0-.09.32.87.87,0,0,0,.46.83.9.9,0,0,0,.32.09.93.93,0,0,0,.33,0q.85-.29,1.68-.63a.86.86,0,0,0,.45-.47.82.82,0,0,0,0-.65.86.86,0,0,0-.46-.46.89.89,0,0,0-.66,0Z" />
	<path fill="currentcolor" d="M11.57,17.05a2.89,2.89,0,0,0-2.35-2.86,3.56,3.56,0,0,0-4,1.88.86.86,0,0,0,0,.65.83.83,0,0,0,.43.49.82.82,0,0,0,.65.05.85.85,0,0,0,.49-.42,1.82,1.82,0,0,1,2.09-1,1.24,1.24,0,0,1,1,1.2c0,.89-1,1.57-2.12,2.3S5.12,21.1,5.12,22.64a.85.85,0,0,0,.86.85h4.73a.88.88,0,0,0,.33-.06.92.92,0,0,0,.28-.19.77.77,0,0,0,.19-.28.79.79,0,0,0,0-.65.77.77,0,0,0-.19-.28.92.92,0,0,0-.28-.19.88.88,0,0,0-.33-.06H7.33a10.45,10.45,0,0,1,1.36-1C10,19.87,11.57,18.85,11.57,17.05Z" />
	<path fill="currentcolor" d="M19.65,19.86a.84.84,0,0,0-.25-.6.86.86,0,0,0-.61-.25H18.1V14.47a.86.86,0,0,0-.57-.81.84.84,0,0,0-.52,0,.83.83,0,0,0-.43.28l-4.33,5.4a.83.83,0,0,0-.18.43.86.86,0,0,0,.08.47.88.88,0,0,0,.31.35.84.84,0,0,0,.46.13h3.47v2.41a1,1,0,0,0,.06.33.87.87,0,0,0,.19.28.8.8,0,0,0,.27.18.78.78,0,0,0,.33.07.72.72,0,0,0,.33-.07.75.75,0,0,0,.28-.18.84.84,0,0,0,.18-.28.78.78,0,0,0,.07-.33V20.71h.69a.86.86,0,0,0,.61-.25A.84.84,0,0,0,19.65,19.86ZM16.39,19H14.7l1.69-2.11Z" />
	<path fill="currentcolor" d="M24,13.15a1,1,0,0,0-.34,0,.67.67,0,0,0-.3.13.76.76,0,0,0-.24.23.85.85,0,0,0-.13.31l-1.92,9.61a.86.86,0,0,0,.13.64.81.81,0,0,0,.54.36.5.5,0,0,0,.17,0,.87.87,0,0,0,.54-.19.83.83,0,0,0,.29-.5l1.93-9.61a.92.92,0,0,0,0-.33.93.93,0,0,0-.13-.31.76.76,0,0,0-.24-.23A.67.67,0,0,0,24,13.15Z" />
	<path fill="currentcolor" d="M28.4,23.49a.86.86,0,0,0,.47-.14.94.94,0,0,0,.32-.39l3.2-7.68a.73.73,0,0,0,.06-.41.84.84,0,0,0-.14-.4.9.9,0,0,0-.3-.28,1,1,0,0,0-.41-.1H27.28a.89.89,0,0,0-.6.26.84.84,0,0,0-.25.6.86.86,0,0,0,.25.6.84.84,0,0,0,.6.25h3l-2.71,6.51a1,1,0,0,0-.06.41.8.8,0,0,0,.14.39.84.84,0,0,0,.31.28.91.91,0,0,0,.4.1Z" />
</svg>
