<svg xmlns="http://www.w3.org/2000/svg" viewBox="0 0 17 17" fill="currentcolor">
	<defs>
		<clipPath id="a">
			<rect x="4" y="4" width="10" height="10" fill="none" />
		</clipPath>
	</defs>
	<path
		d="M12.34,0H4.66A4.66,4.66,0,0,0,0,4.66v7.68A4.66,4.66,0,0,0,4.66,17h7.68A4.66,4.66,0,0,0,17,12.34V4.66A4.66,4.66,0,0,0,12.34,0ZM16,12.34A3.66,3.66,0,0,1,12.34,16H4.66A3.66,3.66,0,0,1,1,12.34V4.66A3.66,3.66,0,0,1,4.66,1h7.68A3.66,3.66,0,0,1,16,4.66Z" />
	<g clip-path="url(#a)">
		<path
			d="M13.93,6a.3.3,0,0,0-.37-.06l0,0a1.92,1.92,0,0,0,.24-.55.27.27,0,0,0-.1-.31.27.27,0,0,0-.32,0,4.13,4.13,0,0,1-1,.41A2.24,2.24,0,0,0,8.6,7.1a.57.57,0,0,0,0,.13,4.78,4.78,0,0,1-3.49-1.9.29.29,0,0,0-.48,0,2.21,2.21,0,0,0-.06,2.29.22.22,0,0,0-.11,0,.27.27,0,0,0-.18.26V8a2.19,2.19,0,0,0,.83,1.72.31.31,0,0,0,0,.21,2.23,2.23,0,0,0,1.26,1.43,5,5,0,0,1-1.91.39H4.3a.29.29,0,0,0-.29.2.3.3,0,0,0,.13.34,5.83,5.83,0,0,0,3.07.88A5.8,5.8,0,0,0,13,7.35v0a5.46,5.46,0,0,0,.94-1A.3.3,0,0,0,13.93,6Zm-1.41,1a.28.28,0,0,0-.11.25v.17a5.21,5.21,0,0,1-7,4.87,5.22,5.22,0,0,0,2-.77.28.28,0,0,0,.12-.33.29.29,0,0,0-.28-.21,1.6,1.6,0,0,1-1.35-.75,2,2,0,0,0,.34,0,.3.3,0,0,0,.24-.29.29.29,0,0,0-.24-.29A1.6,1.6,0,0,1,4.93,8.39a2.16,2.16,0,0,0,.62.09h0a.29.29,0,0,0,.15-.54,1.63,1.63,0,0,1-.83-1.41A1.67,1.67,0,0,1,5,6a5.38,5.38,0,0,0,1.56,1.2,5.28,5.28,0,0,0,2.43.59H9a.28.28,0,0,0,.22-.11.28.28,0,0,0,.06-.25,1.55,1.55,0,0,1,0-.37A1.66,1.66,0,0,1,12.05,6a.27.27,0,0,0,.28.08,3.47,3.47,0,0,0,.46-.13,1.93,1.93,0,0,1-.28.22.3.3,0,0,0-.13.32.29.29,0,0,0,.26.22h.18A2.43,2.43,0,0,1,12.52,6.93Z" />
	</g>
</svg>