<svg xmlns="http://www.w3.org/2000/svg" viewBox="0 0 17.67 17.67">
 <path fill="currentcolor" d="M8.83,17.67a8.86,8.86,0,0,1-4.31-1.13l-2.2.63A1.5,1.5,0,0,1,.46,15.35l.59-2.29A9.22,9.22,0,0,1,0,8.83a8.84,8.84,0,1,1,8.83,8.84ZM4.58,15.5a.48.48,0,0,1,.26.07A7.83,7.83,0,1,0,1,8.83a8.32,8.32,0,0,0,1,3.94.5.5,0,0,1,0,.36L1.42,15.6a.51.51,0,0,0,.63.61l2.4-.69Z" />
 <path fill="currentcolor" d="M10.89,13.08a3.54,3.54,0,0,1-1.42-.31A7,7,0,0,1,8.08,12a10.41,10.41,0,0,1-1.29-1.1,10.08,10.08,0,0,1-1.1-1.28,7.09,7.09,0,0,1-.8-1.38,3.8,3.8,0,0,1-.31-1.42,2.49,2.49,0,0,1,.17-.91,2.32,2.32,0,0,1,.56-.81A1.47,1.47,0,0,1,7,4.7a1.15,1.15,0,0,1,.45.37L8.27,6.3a2.16,2.16,0,0,1,.2.36,1.06,1.06,0,0,1,.09.42,1,1,0,0,1-.15.52A1.72,1.72,0,0,1,8.13,8L8,8.11l.22.27c.16.18.33.37.52.56s.37.36.56.52l.27.21.14-.14a1.7,1.7,0,0,1,.39-.3,1,1,0,0,1,.92,0,1.35,1.35,0,0,1,.35.19l1.26.89a1.11,1.11,0,0,1,.37.44,1.35,1.35,0,0,1,.1.5,1.37,1.37,0,0,1-.14.62,2.39,2.39,0,0,1-.34.51,2.25,2.25,0,0,1-.79.56A2.39,2.39,0,0,1,10.89,13.08ZM6.43,5.58A.63.63,0,0,0,6,5.79a1.28,1.28,0,0,0-.32.46,1.53,1.53,0,0,0-.1.54,2.76,2.76,0,0,0,.23,1A6.67,6.67,0,0,0,6.5,9a9.8,9.8,0,0,0,1,1.16,10,10,0,0,0,1.17,1,6.15,6.15,0,0,0,1.2.69,2,2,0,0,0,1.57.13,1.18,1.18,0,0,0,.43-.32A.93.93,0,0,0,12,11.4a.43.43,0,0,0,0-.19.26.26,0,0,0,0-.11l-1.28-.9a.65.65,0,0,0-.16-.09.39.39,0,0,0-.22.13l-.29.28a.69.69,0,0,1-.5.21l-.36-.08a2.85,2.85,0,0,1-.61-.43A8.11,8.11,0,0,1,8,9.65c-.21-.21-.39-.42-.57-.62A4,4,0,0,1,7,8.46L7,8.32a1,1,0,0,1,0-.26.73.73,0,0,1,.2-.51l.28-.29a.7.7,0,0,0,.14-.16.41.41,0,0,0-.1-.22L6.58,5.65ZM7.85,8.25Z" />
</svg>