<svg xmlns="http://www.w3.org/2000/svg" viewBox="0 0 17.67 14.33">
 <path fill="currentcolor" d="M13,14.33H4.67A4.42,4.42,0,0,1,0,9.67v-5A4.42,4.42,0,0,1,4.67,0H13a4.42,4.42,0,0,1,4.67,4.67v5A4.42,4.42,0,0,1,13,14.33ZM4.67,1A3.44,3.44,0,0,0,1,4.67v5a3.44,3.44,0,0,0,3.67,3.66H13a3.44,3.44,0,0,0,3.67-3.66v-5A3.44,3.44,0,0,0,13,1Z" />
 <path fill="currentcolor" d="M7.66,10.05A1.34,1.34,0,0,1,7,9.89a1.53,1.53,0,0,1-.7-1.39V6A1.57,1.57,0,0,1,7,4.51a1.52,1.52,0,0,1,1.56.14h0L10.67,5.9a1.59,1.59,0,0,1,.81,1.31,1.58,1.58,0,0,1-.79,1.29L8.59,9.76A1.8,1.8,0,0,1,7.66,10.05Zm0-4.69a.2.2,0,0,0-.11,0c-.08,0-.19.24-.19.62V8.5A.59.59,0,0,0,7.52,9a.64.64,0,0,0,.56-.12l2.08-1.25a.62.62,0,0,0,.32-.44.64.64,0,0,0-.34-.46L8.08,5.51A.94.94,0,0,0,7.63,5.36Z" />
</svg>