<svg xmlns="http://www.w3.org/2000/svg" xmlns:xlink="http://www.w3.org/1999/xlink" viewBox="0 0 76.25 76.97"><defs><clipPath id="a"><rect x="22.25" y="14.25" width="54" height="54" fill="none"/></clipPath></defs><title>sorry</title><circle cx="39.19" cy="41.52" r="35.45" fill="#ae36e2"/><path d="M35.7,71.41v-.5a35.2,35.2,0,1,0-20.21-6.38l-.28.41A35.7,35.7,0,1,1,35.7,71.41Z"/><g clip-path="url(#a)"><path d="M49.2,68.25A26.85,26.85,0,0,1,36,64.8,1.59,1.59,0,1,1,37.57,62,23.86,23.86,0,1,0,32.4,58.1a1.59,1.59,0,0,1-2.25,2.25,27,27,0,1,1,19.05,7.9Z"/><path d="M57.69,51.8a1.6,1.6,0,0,1-1.13-.47L39.69,34.45a1.59,1.59,0,1,1,2.25-2.24L58.81,49.08a1.6,1.6,0,0,1-1.12,2.72Z"/><path d="M40.81,51.8a1.58,1.58,0,0,1-1.12-.47,1.59,1.59,0,0,1,0-2.25L56.56,32.21a1.59,1.59,0,1,1,2.25,2.24L41.94,51.33A1.62,1.62,0,0,1,40.81,51.8Z"/></g></svg>