<svg width="29" height="124" viewBox="0 0 29 124" fill="none" xmlns="http://www.w3.org/2000/svg">
<g opacity="0.2">
<circle cx="25.0393" cy="3.57691" r="3.57691" transform="rotate(90 25.0393 3.57691)" fill="#1D2022"/>
<circle cx="25.0393" cy="27.4236" r="3.57691" transform="rotate(90 25.0393 27.4236)" fill="#1D2022"/>
<circle cx="3.57739" cy="27.4236" r="3.57691" transform="rotate(90 3.57739 27.4236)" fill="#1D2022"/>
<circle cx="3.57739" cy="48.885" r="3.57691" transform="rotate(90 3.57739 48.885)" fill="#1D2022"/>
<circle cx="3.57739" cy="98.9609" r="3.57691" transform="rotate(90 3.57739 98.9609)" fill="#1D2022"/>
<circle cx="3.57739" cy="120.423" r="3.57691" transform="rotate(90 3.57739 120.423)" fill="#1D2022"/>
<circle cx="25.0393" cy="48.885" r="3.57691" transform="rotate(90 25.0393 48.885)" fill="#1D2022"/>
<circle cx="25.0393" cy="72.7297" r="3.57691" transform="rotate(90 25.0393 72.7297)" fill="#1D2022"/>
<circle cx="25.0393" cy="98.9609" r="3.57691" transform="rotate(90 25.0393 98.9609)" fill="#1D2022"/>
<circle cx="25.0393" cy="120.423" r="3.57691" transform="rotate(90 25.0393 120.423)" fill="#1D2022"/>
</g>
</svg>
